<?xml version="1.0" standalone="no"?>
<!DOCTYPE svg PUBLIC "-//W3C//DTD SVG 1.1//EN" "http://www.w3.org/Graphics/SVG/1.1/DTD/svg11.dtd">
<svg xmlns="http://www.w3.org/2000/svg" xmlns:inkscape="http://www.inkscape.org/namespaces/inkscape" xmlns:xlink="http://www.w3.org/1999/xlink" viewBox = "0 0 1066 521" version = "1.1">
<defs>
    <style type="text/css"><![CDATA[
        {% for style in styles %}
            {{ style.selector }} {
                fill: {{ style.color }};
            }
        {% endfor %}
    ]]></style>
</defs>
<!-- svg generated using QGIS www.qgis.org -->
<g id="commune_geom_2154" inkscape:groupmode="layer" inkscape:label="commune_geom_2154">
<g stroke="rgb(35,35,35)" fill="none" stroke-linejoin="round" stroke-width="0.40">
<g id="dep73" class="dep" inkscape:label="SAVOIE" >
<path d="M 583,140 L 583,139 L 583,138 L 582,138 L 582,137 L 583,137 L 584,136 L 585,136 L 585,135 L 586,134 L 587,133 L 588,133 L 588,132 L 589,132 L 589,131 L 589,130 L 590,130 L 590,129 L 590,128 L 591,127 L 591,126 L 592,126 L 592,125 L 592,124 L 591,124 L 591,123 L 592,123 L 592,122 L 592,121 L 593,121 L 593,120 L 594,119 L 594,118 L 594,117 L 595,117 L 596,116 L 597,116 L 597,115 L 598,115 L 598,114 L 598,113 L 599,113 L 599,112 L 599,113 L 600,114 L 601,114 L 601,115 L 602,115 L 603,115 L 604,115 L 605,115 L 605,116 L 606,117 L 607,118 L 606,118 L 606,119 L 606,120 L 605,120 L 605,121 L 604,121 L 604,120 L 603,120 L 602,121 L 603,121 L 603,122 L 603,123 L 604,123 L 604,124 L 604,125 L 604,126 L 605,126 L 604,126 L 604,127 L 605,127 L 605,128 L 606,128 L 607,128 L 608,128 L 608,129 L 609,130 L 608,130 L 608,131 L 609,131 L 610,132 L 611,132 L 612,132 L 613,132 L 614,132 L 614,131 L 615,131 L 616,131 L 617,131 L 618,131 L 618,132 L 619,132 L 619,133 L 620,133 L 620,134 L 621,134 L 621,135 L 622,136 L 622,137 L 622,138 L 621,138 L 622,139 L 623,139 L 623,140 L 623,141 L 623,142 L 622,142 L 622,143 L 623,143 L 624,143 L 624,144 L 625,144 L 625,143 L 626,143 L 626,142 L 627,141 L 627,140 L 628,140 L 628,139 L 628,138 L 629,138 L 629,137 L 630,137 L 630,136 L 631,136 L 631,135 L 632,135 L 633,135 L 634,135 L 634,134 L 635,134 L 635,133 L 635,134 L 636,134 L 636,135 L 636,136 L 636,137 L 636,138 L 636,139 L 637,140 L 638,140 L 637,140 L 637,141 L 637,142 L 637,143 L 637,142 L 637,143 L 637,144 L 638,144 L 638,145 L 639,145 L 639,146 L 639,147 L 640,147 L 641,147 L 641,148 L 642,148 L 641,148 L 642,148 L 642,149 L 643,149 L 643,150 L 644,150 L 645,150 L 645,151 L 646,151 L 646,150 L 647,150 L 647,151 L 648,151 L 648,150 L 649,150 L 649,151 L 649,152 L 649,153 L 650,153 L 650,154 L 651,154 L 650,154 L 650,155 L 651,155 L 652,155 L 652,156 L 653,156 L 653,155 L 654,155 L 655,155 L 656,155 L 656,154 L 657,154 L 657,155 L 658,155 L 658,156 L 659,156 L 660,156 L 660,157 L 661,157 L 661,158 L 660,158 L 660,159 L 659,159 L 659,160 L 659,161 L 659,162 L 659,163 L 659,164 L 659,165 L 659,166 L 659,167 L 660,167 L 660,168 L 661,168 L 661,169 L 661,170 L 660,170 L 660,171 L 660,172 L 661,172 L 660,172 L 661,172 L 661,173 L 661,174 L 661,175 L 661,176 L 662,176 L 662,177 L 662,178 L 662,179 L 662,180 L 663,180 L 663,181 L 664,181 L 665,181 L 665,182 L 666,182 L 666,181 L 667,181 L 668,181 L 669,181 L 669,182 L 670,182 L 670,183 L 669,183 L 668,183 L 668,184 L 668,185 L 668,186 L 669,186 L 670,186 L 670,185 L 671,185 L 672,185 L 673,185 L 673,186 L 674,186 L 675,186 L 675,187 L 674,187 L 674,188 L 675,188 L 675,189 L 676,189 L 676,190 L 677,190 L 677,191 L 677,192 L 676,192 L 677,192 L 678,192 L 678,193 L 679,193 L 680,193 L 681,193 L 681,194 L 682,194 L 682,195 L 683,195 L 684,195 L 684,196 L 685,196 L 686,196 L 686,197 L 685,197 L 685,198 L 685,199 L 685,200 L 684,200 L 683,200 L 683,201 L 683,202 L 683,203 L 683,204 L 683,205 L 682,205 L 682,206 L 681,206 L 680,206 L 680,207 L 680,208 L 680,209 L 680,210 L 679,210 L 678,210 L 677,210 L 677,211 L 677,212 L 677,213 L 678,213 L 678,214 L 679,214 L 679,215 L 678,215 L 679,215 L 679,216 L 679,217 L 680,217 L 680,218 L 681,218 L 681,219 L 680,219 L 680,220 L 680,221 L 681,221 L 680,221 L 680,222 L 681,222 L 681,223 L 680,223 L 680,224 L 680,225 L 679,225 L 679,224 L 678,225 L 678,224 L 678,225 L 677,225 L 677,226 L 677,227 L 676,227 L 676,228 L 675,228 L 674,228 L 674,229 L 675,229 L 675,230 L 674,230 L 674,231 L 673,231 L 672,231 L 672,230 L 672,229 L 671,229 L 670,229 L 669,229 L 669,230 L 668,230 L 668,231 L 668,230 L 667,230 L 667,231 L 666,230 L 665,230 L 664,230 L 664,231 L 664,232 L 663,232 L 663,231 L 663,232 L 662,232 L 661,232 L 660,232 L 660,233 L 660,234 L 661,234 L 660,234 L 660,235 L 659,235 L 659,236 L 659,237 L 659,238 L 658,237 L 658,238 L 658,239 L 657,239 L 656,239 L 655,239 L 656,239 L 656,240 L 655,240 L 655,239 L 654,239 L 654,240 L 653,240 L 652,240 L 652,239 L 652,240 L 652,239 L 652,240 L 652,241 L 651,241 L 651,242 L 651,243 L 652,243 L 652,244 L 653,244 L 652,244 L 652,245 L 651,245 L 650,245 L 650,246 L 650,245 L 649,245 L 649,246 L 648,246 L 648,247 L 647,247 L 646,247 L 646,246 L 646,245 L 646,246 L 646,245 L 646,246 L 646,245 L 646,246 L 645,246 L 645,245 L 644,245 L 644,244 L 643,244 L 642,244 L 642,243 L 642,244 L 642,243 L 641,243 L 640,243 L 639,243 L 639,242 L 638,242 L 637,242 L 636,242 L 636,243 L 635,243 L 635,244 L 635,245 L 634,245 L 634,246 L 633,246 L 632,246 L 631,246 L 631,245 L 630,245 L 629,245 L 628,245 L 628,246 L 627,246 L 626,246 L 625,246 L 625,247 L 625,248 L 625,249 L 624,249 L 623,249 L 623,250 L 622,250 L 621,250 L 620,250 L 620,251 L 619,251 L 619,250 L 618,250 L 618,249 L 618,250 L 617,250 L 616,250 L 616,249 L 616,250 L 615,250 L 614,250 L 613,249 L 613,250 L 612,250 L 612,251 L 611,251 L 611,252 L 611,253 L 610,253 L 609,253 L 609,254 L 608,254 L 607,254 L 607,253 L 606,253 L 605,252 L 605,253 L 604,253 L 603,254 L 602,254 L 602,255 L 601,255 L 602,256 L 602,257 L 602,258 L 603,259 L 603,260 L 602,260 L 602,261 L 603,261 L 602,261 L 601,262 L 600,262 L 599,262 L 598,262 L 597,262 L 597,261 L 596,261 L 596,260 L 595,261 L 594,261 L 593,261 L 593,260 L 592,260 L 592,261 L 591,261 L 590,261 L 589,260 L 588,260 L 587,260 L 587,259 L 588,259 L 588,258 L 588,257 L 588,256 L 587,255 L 587,254 L 587,253 L 586,253 L 585,253 L 585,252 L 584,252 L 584,251 L 583,251 L 583,252 L 582,252 L 581,252 L 581,253 L 580,253 L 579,253 L 578,253 L 577,253 L 577,252 L 576,252 L 575,252 L 575,251 L 574,250 L 574,249 L 575,249 L 574,249 L 575,248 L 574,248 L 574,247 L 573,247 L 573,246 L 572,246 L 572,247 L 571,247 L 570,247 L 570,248 L 569,248 L 569,247 L 568,247 L 568,246 L 567,245 L 566,245 L 565,244 L 564,244 L 563,245 L 563,246 L 562,246 L 562,247 L 561,247 L 561,246 L 561,247 L 560,246 L 559,246 L 560,246 L 560,245 L 560,244 L 559,244 L 560,244 L 560,243 L 561,243 L 560,243 L 561,243 L 561,242 L 561,241 L 561,240 L 561,238 L 561,237 L 560,237 L 559,237 L 559,236 L 558,236 L 558,235 L 559,235 L 559,234 L 558,234 L 558,233 L 557,233 L 557,232 L 557,231 L 556,230 L 557,230 L 557,229 L 558,229 L 558,228 L 558,227 L 558,226 L 557,226 L 557,225 L 557,224 L 557,223 L 557,222 L 558,222 L 558,221 L 559,221 L 559,220 L 560,220 L 560,219 L 559,219 L 560,219 L 560,218 L 561,218 L 562,218 L 562,217 L 563,217 L 564,217 L 563,217 L 563,216 L 563,215 L 564,215 L 564,214 L 564,213 L 564,212 L 564,211 L 563,211 L 562,211 L 561,211 L 561,210 L 562,210 L 563,210 L 563,209 L 564,209 L 564,208 L 563,208 L 563,207 L 563,206 L 562,206 L 562,205 L 562,204 L 561,204 L 561,203 L 560,203 L 560,202 L 559,202 L 559,201 L 558,201 L 557,201 L 557,200 L 557,199 L 556,199 L 556,198 L 556,197 L 555,197 L 555,196 L 555,197 L 554,197 L 553,197 L 553,198 L 552,198 L 551,198 L 551,197 L 551,196 L 552,196 L 551,196 L 550,196 L 549,196 L 548,196 L 547,196 L 546,196 L 546,197 L 543,196 L 541,195 L 541,194 L 540,194 L 541,192 L 541,191 L 540,191 L 539,191 L 538,191 L 538,190 L 537,190 L 537,189 L 537,188 L 536,188 L 535,188 L 534,189 L 532,190 L 530,191 L 529,191 L 529,192 L 530,192 L 530,193 L 530,194 L 530,195 L 530,196 L 530,197 L 529,197 L 529,198 L 528,198 L 528,199 L 528,200 L 528,201 L 528,202 L 528,203 L 529,203 L 530,202 L 530,201 L 531,201 L 531,202 L 531,203 L 530,203 L 530,204 L 529,204 L 530,204 L 529,204 L 529,205 L 529,206 L 528,206 L 527,206 L 527,205 L 527,204 L 526,204 L 525,204 L 525,203 L 524,203 L 523,203 L 522,203 L 522,202 L 521,202 L 521,201 L 520,201 L 519,201 L 518,201 L 517,201 L 517,200 L 516,200 L 516,199 L 515,199 L 515,198 L 514,198 L 513,198 L 513,197 L 513,198 L 512,198 L 511,198 L 510,198 L 510,199 L 509,199 L 508,199 L 508,198 L 508,197 L 507,197 L 507,196 L 507,195 L 507,194 L 507,193 L 507,192 L 506,192 L 506,191 L 505,191 L 505,190 L 505,189 L 504,189 L 504,188 L 504,187 L 504,186 L 503,186 L 502,186 L 503,186 L 503,185 L 502,185 L 502,184 L 501,184 L 501,183 L 500,183 L 499,182 L 499,181 L 499,180 L 499,181 L 500,181 L 500,180 L 499,180 L 499,179 L 499,178 L 498,178 L 499,178 L 499,177 L 498,177 L 499,177 L 498,177 L 498,176 L 498,177 L 497,177 L 497,176 L 496,176 L 496,175 L 495,175 L 495,174 L 495,173 L 494,172 L 493,171 L 493,170 L 492,170 L 493,170 L 493,169 L 492,169 L 493,169 L 492,169 L 492,168 L 493,169 L 494,168 L 494,167 L 495,166 L 495,165 L 496,164 L 497,164 L 499,164 L 500,163 L 500,162 L 500,161 L 500,160 L 500,159 L 500,158 L 502,157 L 502,156 L 502,155 L 502,154 L 502,153 L 501,153 L 501,152 L 501,151 L 502,151 L 503,151 L 504,151 L 505,151 L 506,151 L 507,152 L 508,151 L 509,150 L 509,149 L 510,149 L 510,148 L 511,148 L 510,147 L 510,146 L 510,145 L 511,145 L 511,144 L 511,143 L 511,142 L 511,141 L 511,140 L 511,139 L 511,138 L 511,137 L 511,136 L 511,135 L 511,134 L 511,133 L 511,132 L 511,131 L 511,130 L 512,130 L 512,129 L 513,128 L 513,127 L 513,125 L 513,124 L 514,124 L 514,123 L 514,121 L 515,119 L 515,118 L 515,117 L 516,115 L 516,114 L 515,113 L 515,112 L 515,111 L 516,111 L 516,112 L 517,112 L 517,111 L 518,111 L 518,112 L 519,112 L 520,112 L 520,114 L 520,115 L 520,116 L 520,117 L 521,119 L 521,120 L 521,121 L 522,122 L 522,123 L 522,124 L 522,125 L 522,126 L 522,127 L 522,128 L 522,129 L 522,128 L 522,129 L 523,129 L 522,130 L 523,130 L 524,130 L 525,130 L 526,130 L 525,130 L 525,131 L 525,132 L 526,132 L 526,133 L 527,133 L 527,134 L 528,134 L 528,133 L 529,133 L 529,132 L 530,132 L 530,133 L 531,132 L 531,133 L 531,132 L 531,133 L 532,132 L 533,132 L 533,133 L 532,134 L 532,135 L 533,135 L 534,135 L 535,135 L 535,136 L 535,137 L 535,138 L 534,138 L 534,139 L 534,140 L 535,140 L 536,140 L 537,141 L 537,142 L 537,143 L 538,143 L 539,143 L 540,143 L 540,144 L 541,144 L 542,144 L 543,144 L 543,145 L 543,144 L 544,144 L 544,143 L 544,142 L 545,143 L 546,143 L 546,144 L 547,144 L 548,144 L 548,143 L 549,143 L 549,144 L 550,144 L 549,145 L 550,145 L 550,144 L 550,143 L 550,142 L 550,141 L 550,140 L 550,141 L 551,141 L 552,141 L 552,142 L 552,141 L 552,142 L 552,141 L 552,142 L 553,142 L 554,142 L 554,141 L 554,140 L 555,140 L 556,140 L 557,141 L 558,141 L 558,142 L 559,142 L 559,143 L 560,143 L 559,143 L 559,144 L 560,145 L 562,145 L 562,146 L 561,146 L 561,147 L 561,148 L 561,149 L 561,150 L 561,151 L 562,152 L 562,151 L 563,151 L 563,150 L 563,151 L 564,150 L 564,149 L 565,149 L 566,150 L 566,151 L 566,152 L 566,153 L 566,154 L 567,154 L 567,153 L 568,153 L 569,153 L 570,153 L 570,152 L 570,153 L 571,153 L 571,152 L 571,153 L 572,153 L 573,153 L 573,152 L 574,152 L 575,152 L 575,151 L 576,151 L 577,151 L 578,151 L 578,150 L 579,150 L 579,149 L 579,148 L 580,148 L 580,147 L 580,146 L 581,145 L 581,144 L 580,143 L 583,140 " />
</g>
<g id="dep05" inkscape:label="HAUTES_ALPES">
<path d="M 538,316 L 538,315 L 538,314 L 539,314 L 539,313 L 540,313 L 541,313 L 541,312 L 542,312 L 541,312 L 541,311 L 541,310 L 540,310 L 539,310 L 539,309 L 538,309 L 538,308 L 538,307 L 539,307 L 540,307 L 540,306 L 541,306 L 541,305 L 542,305 L 542,306 L 543,306 L 543,305 L 544,305 L 545,305 L 545,304 L 545,303 L 546,302 L 547,302 L 548,302 L 548,303 L 549,303 L 549,304 L 550,304 L 550,305 L 551,305 L 551,306 L 551,305 L 552,305 L 552,304 L 553,304 L 553,303 L 554,303 L 555,303 L 555,302 L 556,302 L 556,301 L 557,301 L 557,300 L 557,301 L 557,300 L 558,300 L 558,299 L 559,299 L 559,298 L 559,297 L 560,297 L 561,297 L 561,298 L 562,298 L 563,298 L 564,298 L 564,299 L 565,299 L 565,298 L 566,298 L 567,298 L 568,298 L 568,297 L 569,297 L 569,298 L 570,298 L 571,298 L 572,298 L 573,298 L 574,298 L 575,298 L 575,297 L 576,297 L 576,296 L 577,295 L 578,295 L 579,295 L 579,294 L 580,294 L 581,294 L 581,295 L 582,295 L 582,296 L 583,296 L 583,297 L 583,298 L 584,298 L 585,298 L 585,299 L 586,298 L 587,298 L 588,298 L 588,297 L 587,297 L 587,296 L 587,295 L 587,294 L 587,293 L 587,292 L 588,292 L 588,291 L 588,290 L 587,290 L 587,289 L 588,289 L 588,288 L 587,288 L 587,287 L 588,287 L 587,287 L 587,286 L 587,285 L 587,284 L 587,283 L 588,283 L 587,283 L 587,282 L 586,282 L 585,282 L 585,281 L 584,281 L 583,281 L 583,280 L 583,279 L 583,278 L 584,278 L 584,277 L 583,277 L 582,276 L 582,275 L 582,274 L 582,273 L 583,272 L 582,272 L 582,271 L 581,272 L 581,271 L 580,271 L 580,272 L 579,272 L 578,272 L 577,272 L 576,273 L 575,273 L 574,273 L 573,273 L 572,273 L 572,272 L 571,272 L 568,271 L 568,270 L 568,269 L 568,268 L 568,267 L 568,266 L 568,265 L 569,265 L 569,264 L 569,263 L 569,262 L 569,261 L 570,261 L 571,261 L 572,261 L 572,260 L 572,259 L 571,259 L 571,258 L 572,258 L 571,258 L 571,257 L 571,256 L 570,256 L 571,256 L 570,256 L 570,255 L 570,254 L 570,253 L 571,253 L 572,253 L 572,252 L 573,251 L 574,251 L 574,250 L 575,251 L 575,252 L 576,252 L 577,252 L 577,253 L 578,253 L 579,253 L 580,253 L 581,253 L 581,252 L 582,252 L 583,252 L 583,251 L 584,251 L 584,252 L 585,252 L 585,253 L 586,253 L 587,253 L 587,254 L 587,255 L 588,256 L 588,257 L 588,258 L 588,259 L 587,259 L 587,260 L 588,260 L 589,260 L 590,261 L 591,261 L 592,261 L 592,260 L 593,260 L 593,261 L 594,261 L 595,261 L 596,260 L 596,261 L 597,261 L 597,262 L 598,262 L 599,262 L 600,262 L 601,262 L 602,261 L 603,261 L 602,261 L 602,260 L 603,260 L 603,259 L 602,258 L 602,257 L 602,256 L 601,255 L 602,255 L 602,254 L 603,254 L 604,253 L 605,253 L 605,252 L 606,253 L 607,253 L 607,254 L 608,254 L 609,254 L 609,253 L 610,253 L 611,253 L 611,252 L 611,251 L 612,251 L 612,250 L 613,250 L 613,249 L 614,250 L 615,250 L 616,250 L 616,249 L 616,250 L 617,250 L 618,250 L 618,249 L 618,250 L 619,250 L 619,251 L 620,251 L 620,252 L 619,252 L 619,253 L 620,253 L 620,254 L 621,254 L 621,255 L 622,255 L 622,256 L 622,257 L 622,258 L 623,258 L 624,258 L 624,259 L 624,260 L 624,261 L 624,262 L 625,262 L 625,263 L 625,264 L 625,265 L 626,266 L 625,266 L 626,266 L 626,267 L 627,267 L 627,266 L 628,266 L 628,267 L 628,266 L 629,266 L 629,267 L 629,266 L 630,266 L 631,266 L 632,266 L 633,266 L 633,267 L 634,267 L 635,267 L 635,268 L 635,269 L 636,270 L 635,270 L 636,270 L 635,270 L 636,270 L 636,271 L 635,271 L 635,270 L 635,271 L 634,271 L 634,272 L 635,272 L 636,272 L 636,273 L 636,274 L 637,274 L 637,275 L 638,276 L 638,277 L 637,278 L 637,279 L 636,279 L 636,280 L 635,281 L 636,281 L 637,281 L 637,282 L 636,282 L 636,283 L 636,284 L 636,285 L 636,286 L 637,286 L 637,287 L 638,287 L 639,287 L 639,286 L 639,287 L 640,287 L 640,288 L 641,288 L 641,289 L 642,289 L 643,288 L 643,289 L 643,290 L 643,291 L 644,291 L 645,291 L 645,292 L 646,292 L 647,292 L 647,293 L 648,293 L 648,294 L 649,294 L 650,294 L 650,295 L 651,295 L 652,295 L 653,295 L 653,296 L 654,296 L 654,295 L 655,295 L 656,295 L 656,296 L 657,296 L 657,295 L 658,295 L 658,294 L 659,294 L 659,293 L 659,292 L 659,293 L 660,293 L 661,293 L 661,294 L 662,294 L 663,294 L 663,295 L 664,295 L 665,295 L 666,295 L 667,295 L 667,296 L 668,296 L 669,296 L 669,297 L 669,298 L 669,299 L 670,299 L 671,299 L 671,300 L 670,300 L 671,300 L 670,301 L 671,301 L 670,301 L 670,302 L 669,303 L 669,304 L 668,304 L 668,305 L 669,305 L 669,306 L 670,306 L 670,307 L 671,307 L 671,308 L 671,309 L 672,309 L 672,310 L 672,311 L 671,311 L 671,312 L 672,312 L 671,312 L 672,312 L 672,313 L 672,314 L 672,315 L 673,315 L 672,315 L 673,315 L 673,316 L 674,316 L 674,317 L 675,317 L 676,318 L 677,318 L 677,319 L 677,320 L 678,320 L 678,321 L 678,322 L 679,322 L 678,322 L 679,322 L 678,322 L 679,322 L 679,323 L 678,323 L 678,324 L 677,324 L 676,324 L 676,323 L 675,323 L 674,323 L 674,322 L 673,322 L 672,322 L 671,322 L 670,322 L 670,323 L 670,322 L 670,323 L 669,323 L 669,322 L 668,322 L 668,323 L 667,323 L 667,324 L 666,324 L 666,325 L 665,325 L 664,325 L 664,326 L 664,327 L 664,328 L 663,328 L 663,329 L 662,329 L 661,329 L 660,329 L 660,328 L 659,328 L 658,329 L 658,330 L 657,330 L 657,331 L 656,331 L 656,332 L 656,333 L 655,333 L 655,334 L 654,334 L 653,334 L 652,334 L 652,335 L 652,336 L 651,336 L 651,337 L 650,337 L 650,338 L 650,337 L 649,337 L 648,337 L 648,338 L 647,338 L 647,339 L 646,339 L 645,339 L 645,338 L 645,339 L 645,340 L 644,340 L 644,341 L 643,340 L 643,341 L 642,341 L 641,341 L 641,342 L 641,343 L 642,343 L 642,344 L 641,344 L 640,344 L 640,345 L 639,345 L 639,346 L 638,347 L 638,348 L 637,348 L 636,348 L 636,349 L 635,349 L 635,350 L 634,350 L 633,351 L 633,350 L 632,350 L 631,350 L 631,351 L 631,352 L 631,353 L 631,354 L 630,354 L 630,355 L 630,356 L 630,357 L 629,357 L 629,358 L 628,358 L 628,359 L 627,359 L 627,360 L 626,360 L 626,361 L 626,362 L 626,363 L 626,364 L 626,365 L 625,365 L 625,366 L 625,367 L 624,367 L 623,367 L 622,367 L 621,367 L 620,367 L 619,367 L 618,367 L 617,367 L 617,368 L 616,368 L 616,367 L 615,367 L 614,367 L 613,367 L 612,367 L 613,367 L 612,367 L 611,367 L 610,367 L 609,367 L 608,367 L 607,367 L 606,367 L 605,367 L 604,367 L 604,366 L 604,365 L 603,365 L 602,365 L 602,364 L 601,364 L 600,363 L 600,364 L 599,364 L 598,364 L 597,364 L 597,363 L 597,362 L 597,361 L 596,361 L 596,360 L 594,359 L 594,358 L 593,358 L 592,358 L 592,357 L 592,356 L 591,356 L 591,355 L 590,355 L 590,356 L 589,357 L 588,357 L 587,358 L 588,358 L 588,359 L 589,359 L 589,360 L 589,361 L 589,362 L 589,363 L 588,363 L 588,364 L 587,365 L 587,366 L 586,365 L 585,365 L 584,364 L 583,364 L 583,363 L 582,363 L 580,364 L 580,365 L 579,366 L 578,366 L 577,366 L 576,366 L 575,366 L 576,366 L 576,367 L 576,368 L 576,369 L 577,369 L 577,370 L 577,371 L 578,371 L 577,371 L 578,371 L 578,372 L 578,373 L 579,373 L 579,374 L 579,375 L 579,376 L 579,377 L 578,377 L 578,378 L 578,379 L 577,379 L 577,380 L 576,380 L 575,380 L 575,381 L 575,380 L 575,381 L 575,380 L 574,380 L 574,379 L 574,378 L 573,378 L 573,377 L 573,376 L 572,376 L 572,375 L 571,375 L 571,374 L 570,374 L 570,373 L 569,373 L 569,372 L 568,372 L 568,371 L 567,371 L 567,372 L 566,372 L 566,371 L 566,370 L 566,369 L 566,368 L 566,367 L 565,367 L 564,367 L 564,366 L 563,366 L 562,366 L 561,366 L 561,365 L 560,365 L 559,365 L 558,365 L 557,364 L 556,365 L 556,366 L 556,367 L 557,367 L 556,367 L 556,368 L 556,369 L 555,369 L 556,369 L 555,369 L 555,370 L 556,370 L 556,371 L 555,371 L 555,370 L 554,370 L 554,369 L 553,369 L 553,370 L 552,370 L 552,371 L 551,371 L 551,372 L 550,372 L 549,373 L 549,374 L 549,375 L 548,375 L 547,375 L 547,376 L 546,376 L 546,377 L 545,377 L 544,377 L 544,378 L 543,378 L 542,378 L 542,379 L 541,379 L 541,380 L 540,381 L 540,382 L 540,383 L 539,384 L 539,385 L 539,386 L 538,387 L 538,388 L 537,388 L 537,389 L 537,390 L 536,390 L 535,390 L 535,391 L 535,392 L 534,392 L 534,393 L 534,394 L 535,394 L 536,394 L 537,394 L 538,394 L 538,395 L 538,396 L 538,397 L 538,398 L 537,398 L 536,398 L 536,399 L 537,399 L 537,400 L 537,401 L 536,401 L 536,402 L 537,402 L 538,402 L 538,403 L 538,404 L 538,405 L 537,405 L 536,405 L 536,404 L 534,403 L 533,402 L 532,402 L 532,401 L 532,400 L 532,399 L 532,398 L 531,398 L 531,397 L 530,397 L 529,397 L 528,397 L 528,396 L 528,397 L 527,397 L 527,398 L 527,399 L 526,399 L 526,400 L 525,400 L 525,401 L 525,402 L 526,403 L 526,404 L 527,404 L 527,405 L 528,405 L 529,406 L 530,406 L 530,407 L 530,408 L 531,408 L 531,409 L 532,409 L 532,410 L 532,411 L 532,412 L 533,412 L 534,412 L 534,413 L 535,413 L 536,413 L 537,413 L 537,414 L 537,415 L 536,415 L 535,415 L 535,416 L 534,416 L 534,415 L 533,415 L 532,415 L 531,415 L 530,415 L 529,415 L 529,414 L 528,414 L 527,414 L 526,414 L 525,412 L 524,412 L 522,412 L 521,412 L 521,413 L 520,413 L 519,413 L 518,413 L 517,413 L 516,413 L 516,414 L 515,414 L 514,415 L 513,415 L 512,415 L 512,416 L 511,416 L 510,416 L 510,417 L 509,417 L 508,417 L 507,416 L 508,416 L 509,416 L 509,415 L 508,415 L 508,414 L 508,413 L 507,413 L 507,412 L 507,411 L 508,411 L 508,410 L 507,410 L 508,409 L 507,409 L 507,408 L 507,407 L 507,406 L 507,405 L 507,404 L 508,404 L 508,403 L 507,402 L 506,402 L 505,402 L 504,403 L 503,403 L 503,402 L 502,402 L 502,401 L 501,401 L 501,400 L 501,399 L 502,399 L 502,398 L 502,397 L 501,397 L 500,397 L 500,396 L 499,396 L 498,396 L 498,397 L 498,396 L 498,395 L 499,395 L 499,394 L 500,394 L 500,393 L 501,393 L 501,392 L 500,392 L 500,391 L 500,392 L 499,392 L 498,392 L 497,392 L 496,392 L 495,392 L 494,392 L 493,392 L 492,392 L 491,392 L 491,393 L 491,392 L 491,393 L 490,393 L 490,392 L 490,393 L 489,392 L 489,391 L 488,390 L 487,390 L 487,389 L 486,390 L 485,390 L 484,391 L 484,392 L 483,392 L 483,391 L 482,390 L 482,389 L 481,389 L 480,389 L 480,388 L 480,387 L 479,386 L 478,387 L 478,386 L 477,386 L 477,387 L 477,386 L 476,387 L 476,386 L 476,385 L 475,385 L 476,385 L 477,385 L 477,384 L 477,383 L 477,382 L 476,381 L 476,380 L 476,379 L 475,378 L 474,378 L 474,377 L 474,376 L 475,376 L 475,375 L 476,375 L 477,375 L 478,375 L 478,376 L 479,376 L 480,376 L 480,377 L 481,377 L 482,377 L 482,376 L 483,376 L 483,374 L 484,374 L 483,374 L 484,374 L 483,374 L 482,374 L 482,373 L 481,373 L 480,373 L 479,372 L 479,371 L 479,370 L 479,369 L 478,369 L 479,369 L 479,368 L 480,368 L 479,368 L 479,367 L 479,366 L 478,366 L 478,365 L 478,364 L 478,363 L 479,363 L 480,363 L 480,364 L 481,364 L 481,365 L 482,365 L 483,365 L 484,365 L 485,365 L 486,365 L 487,365 L 487,366 L 488,366 L 489,366 L 490,366 L 490,367 L 491,367 L 491,368 L 491,367 L 492,367 L 493,367 L 493,368 L 494,368 L 495,368 L 495,369 L 496,369 L 497,369 L 497,368 L 498,368 L 498,367 L 499,366 L 499,365 L 499,364 L 499,363 L 500,363 L 500,362 L 501,362 L 502,363 L 503,363 L 503,362 L 504,362 L 503,361 L 503,360 L 502,360 L 502,359 L 501,359 L 501,358 L 500,358 L 500,357 L 499,357 L 499,356 L 499,357 L 498,357 L 497,357 L 497,356 L 496,356 L 496,355 L 495,355 L 495,354 L 496,354 L 496,353 L 496,352 L 496,351 L 497,350 L 498,350 L 497,350 L 497,349 L 498,349 L 497,349 L 498,348 L 499,348 L 499,347 L 499,346 L 499,345 L 500,345 L 500,344 L 500,343 L 501,343 L 501,342 L 501,341 L 501,340 L 500,340 L 500,339 L 500,338 L 500,337 L 500,336 L 501,336 L 501,335 L 502,335 L 502,336 L 503,336 L 504,337 L 504,336 L 505,336 L 506,336 L 506,337 L 507,337 L 508,337 L 508,338 L 509,338 L 509,337 L 510,337 L 510,338 L 511,338 L 512,338 L 512,337 L 512,336 L 513,336 L 514,336 L 514,335 L 513,335 L 514,335 L 514,334 L 515,334 L 515,335 L 516,335 L 517,335 L 518,335 L 519,335 L 519,334 L 520,333 L 520,332 L 520,331 L 521,331 L 521,330 L 522,330 L 523,330 L 523,329 L 524,329 L 523,328 L 523,327 L 522,326 L 521,326 L 520,326 L 520,325 L 521,325 L 521,324 L 521,323 L 522,322 L 522,321 L 523,320 L 523,319 L 523,318 L 523,317 L 523,316 L 523,317 L 524,317 L 525,317 L 525,318 L 526,318 L 527,318 L 528,318 L 529,318 L 530,318 L 531,318 L 530,318 L 530,317 L 531,317 L 532,317 L 532,316 L 533,316 L 533,317 L 534,317 L 535,317 L 535,316 L 536,316 L 536,315 L 537,315 L 537,316 L 538,316 " />
</g>
<g id="dep04" inkscape:label="ALPES_DE_HAUTE_PROVENCE">
<path d="M 502,424 L 503,424 L 504,424 L 505,424 L 506,424 L 507,424 L 508,424 L 508,423 L 508,421 L 507,421 L 506,421 L 505,421 L 504,421 L 504,420 L 503,420 L 504,419 L 504,418 L 504,417 L 505,417 L 506,417 L 507,417 L 507,416 L 508,417 L 509,417 L 510,417 L 510,416 L 511,416 L 512,416 L 512,415 L 513,415 L 514,415 L 515,414 L 516,414 L 516,413 L 517,413 L 518,413 L 519,413 L 520,413 L 521,413 L 521,412 L 522,412 L 524,412 L 525,412 L 526,414 L 527,414 L 528,414 L 529,414 L 529,415 L 530,415 L 531,415 L 532,415 L 533,415 L 534,415 L 534,416 L 535,416 L 535,415 L 536,415 L 537,415 L 537,414 L 537,413 L 536,413 L 535,413 L 534,413 L 534,412 L 533,412 L 532,412 L 532,411 L 532,410 L 532,409 L 531,409 L 531,408 L 530,408 L 530,407 L 530,406 L 529,406 L 528,405 L 527,405 L 527,404 L 526,404 L 526,403 L 525,402 L 525,401 L 525,400 L 526,400 L 526,399 L 527,399 L 527,398 L 527,397 L 528,397 L 528,396 L 528,397 L 529,397 L 530,397 L 531,397 L 531,398 L 532,398 L 532,399 L 532,400 L 532,401 L 532,402 L 533,402 L 534,403 L 536,404 L 536,405 L 537,405 L 538,405 L 538,404 L 538,403 L 538,402 L 537,402 L 536,402 L 536,401 L 537,401 L 537,400 L 537,399 L 536,399 L 536,398 L 537,398 L 538,398 L 538,397 L 538,396 L 538,395 L 538,394 L 537,394 L 536,394 L 535,394 L 534,394 L 534,393 L 534,392 L 535,392 L 535,391 L 535,390 L 536,390 L 537,390 L 537,389 L 537,388 L 538,388 L 538,387 L 539,386 L 539,385 L 539,384 L 540,383 L 540,382 L 540,381 L 541,380 L 541,379 L 542,379 L 542,378 L 543,378 L 544,378 L 544,377 L 545,377 L 546,377 L 546,376 L 547,376 L 547,375 L 548,375 L 549,375 L 549,374 L 549,373 L 550,372 L 551,372 L 551,371 L 552,371 L 552,370 L 553,370 L 553,369 L 554,369 L 554,370 L 555,370 L 555,371 L 556,371 L 556,370 L 555,370 L 555,369 L 556,369 L 555,369 L 556,369 L 556,368 L 556,367 L 557,367 L 556,367 L 556,366 L 556,365 L 557,364 L 558,365 L 559,365 L 560,365 L 561,365 L 561,366 L 562,366 L 563,366 L 564,366 L 564,367 L 565,367 L 566,367 L 566,368 L 566,369 L 566,370 L 566,371 L 566,372 L 567,372 L 567,371 L 568,371 L 568,372 L 569,372 L 569,373 L 570,373 L 570,374 L 571,374 L 571,375 L 572,375 L 572,376 L 573,376 L 573,377 L 573,378 L 574,378 L 574,379 L 574,380 L 575,380 L 575,381 L 575,380 L 575,381 L 575,380 L 576,380 L 577,380 L 577,379 L 578,379 L 578,378 L 578,377 L 579,377 L 579,376 L 579,375 L 579,374 L 579,373 L 578,373 L 578,372 L 578,371 L 577,371 L 578,371 L 577,371 L 577,370 L 577,369 L 576,369 L 576,368 L 576,367 L 576,366 L 575,366 L 576,366 L 577,366 L 578,366 L 579,366 L 580,365 L 580,364 L 582,363 L 583,363 L 583,364 L 584,364 L 585,365 L 586,365 L 587,366 L 587,365 L 588,364 L 588,363 L 589,363 L 589,362 L 589,361 L 589,360 L 589,359 L 588,359 L 588,358 L 587,358 L 588,357 L 589,357 L 590,356 L 590,355 L 591,355 L 591,356 L 592,356 L 592,357 L 592,358 L 593,358 L 594,358 L 594,359 L 596,360 L 596,361 L 597,361 L 597,362 L 597,363 L 597,364 L 598,364 L 599,364 L 600,364 L 600,363 L 601,364 L 602,364 L 602,365 L 603,365 L 604,365 L 604,366 L 604,367 L 605,367 L 606,367 L 607,367 L 608,367 L 609,367 L 610,367 L 611,367 L 612,367 L 613,367 L 612,367 L 613,367 L 614,367 L 615,367 L 616,367 L 616,368 L 617,368 L 617,367 L 618,367 L 619,367 L 620,367 L 621,367 L 622,367 L 623,367 L 624,367 L 625,367 L 625,366 L 625,365 L 626,365 L 626,364 L 626,363 L 626,362 L 626,361 L 626,360 L 627,360 L 627,359 L 628,359 L 628,358 L 629,358 L 629,357 L 630,357 L 630,356 L 630,355 L 630,354 L 631,354 L 631,353 L 631,352 L 631,351 L 631,350 L 632,350 L 633,350 L 633,351 L 634,350 L 635,350 L 635,349 L 636,349 L 636,348 L 637,348 L 638,348 L 638,347 L 639,346 L 639,345 L 640,345 L 640,344 L 641,344 L 642,344 L 642,343 L 641,343 L 641,342 L 641,341 L 642,341 L 643,341 L 643,340 L 644,341 L 644,340 L 645,340 L 645,339 L 645,338 L 645,339 L 646,339 L 647,339 L 647,338 L 648,338 L 648,337 L 649,337 L 650,337 L 650,338 L 650,337 L 651,337 L 651,336 L 652,336 L 652,335 L 652,334 L 653,334 L 654,334 L 655,334 L 655,333 L 656,333 L 656,332 L 656,331 L 657,331 L 657,330 L 658,330 L 658,329 L 659,328 L 660,328 L 660,329 L 661,329 L 662,329 L 663,329 L 663,330 L 664,330 L 664,331 L 664,332 L 665,333 L 665,334 L 666,334 L 666,335 L 665,335 L 664,335 L 663,335 L 663,336 L 664,336 L 664,337 L 663,337 L 663,338 L 662,338 L 662,339 L 662,340 L 662,341 L 662,342 L 662,343 L 661,343 L 661,344 L 660,344 L 659,344 L 659,345 L 660,345 L 660,346 L 659,346 L 658,346 L 658,347 L 658,346 L 657,346 L 657,347 L 656,347 L 655,347 L 655,348 L 654,348 L 655,348 L 654,349 L 654,350 L 653,350 L 653,351 L 652,351 L 653,351 L 652,351 L 652,352 L 653,352 L 653,353 L 653,354 L 653,355 L 653,356 L 654,356 L 654,357 L 654,358 L 655,358 L 656,358 L 656,359 L 655,359 L 656,360 L 657,360 L 657,361 L 658,361 L 659,361 L 659,362 L 660,362 L 660,363 L 660,364 L 660,365 L 661,365 L 662,365 L 662,366 L 663,366 L 664,366 L 664,367 L 664,368 L 665,368 L 665,369 L 665,368 L 664,368 L 663,368 L 663,369 L 662,369 L 661,369 L 660,369 L 659,370 L 658,370 L 658,371 L 658,372 L 659,372 L 659,373 L 659,374 L 659,375 L 659,376 L 659,377 L 659,378 L 659,379 L 658,379 L 658,380 L 658,381 L 657,381 L 657,382 L 656,382 L 656,383 L 655,383 L 655,384 L 654,384 L 654,383 L 653,383 L 652,383 L 652,384 L 651,384 L 651,385 L 650,385 L 650,386 L 649,386 L 648,386 L 648,387 L 648,388 L 647,388 L 647,389 L 647,390 L 647,391 L 647,392 L 646,392 L 646,393 L 646,394 L 646,395 L 646,396 L 647,396 L 646,396 L 645,396 L 644,396 L 643,396 L 643,395 L 643,396 L 643,397 L 642,397 L 643,398 L 643,399 L 642,399 L 641,399 L 640,400 L 639,400 L 639,401 L 639,400 L 638,401 L 639,401 L 639,402 L 638,402 L 638,403 L 638,404 L 639,404 L 639,405 L 638,405 L 638,406 L 637,406 L 638,407 L 638,408 L 638,409 L 637,409 L 637,410 L 636,410 L 637,410 L 636,410 L 636,411 L 636,412 L 636,413 L 636,414 L 635,414 L 635,415 L 634,415 L 635,416 L 636,417 L 636,418 L 636,419 L 637,419 L 637,420 L 637,421 L 637,422 L 637,423 L 638,423 L 639,423 L 639,424 L 639,425 L 640,425 L 640,426 L 641,426 L 641,427 L 642,427 L 642,428 L 642,429 L 643,429 L 643,430 L 644,430 L 644,431 L 643,431 L 643,432 L 643,433 L 643,434 L 643,435 L 643,436 L 643,437 L 644,437 L 644,438 L 645,439 L 646,439 L 646,440 L 647,440 L 648,440 L 649,440 L 648,440 L 649,440 L 649,441 L 649,442 L 649,443 L 650,443 L 651,443 L 651,444 L 651,443 L 651,444 L 652,444 L 653,444 L 653,445 L 654,445 L 655,445 L 655,446 L 655,447 L 656,447 L 656,448 L 656,449 L 656,450 L 656,451 L 656,452 L 657,452 L 657,451 L 658,451 L 659,452 L 660,452 L 660,453 L 661,454 L 661,455 L 662,455 L 662,456 L 663,456 L 664,456 L 665,456 L 665,457 L 666,457 L 666,458 L 667,458 L 667,459 L 668,459 L 668,460 L 669,460 L 669,461 L 668,461 L 668,462 L 667,462 L 666,462 L 665,462 L 664,462 L 663,462 L 663,463 L 662,463 L 661,462 L 661,461 L 660,461 L 660,460 L 659,460 L 658,460 L 657,460 L 657,459 L 658,459 L 657,459 L 656,459 L 656,458 L 655,458 L 655,459 L 655,458 L 654,458 L 654,459 L 653,459 L 652,459 L 651,459 L 651,460 L 651,459 L 651,460 L 651,461 L 650,461 L 650,462 L 649,463 L 649,464 L 648,464 L 648,465 L 647,465 L 647,466 L 646,466 L 645,466 L 645,467 L 644,467 L 644,466 L 643,466 L 642,466 L 641,466 L 640,465 L 639,465 L 638,465 L 637,465 L 636,465 L 636,464 L 635,464 L 635,465 L 635,466 L 636,466 L 637,466 L 638,466 L 638,467 L 638,468 L 638,469 L 638,470 L 639,469 L 639,470 L 638,470 L 637,470 L 636,470 L 636,471 L 636,472 L 635,472 L 635,473 L 635,474 L 636,474 L 637,475 L 638,475 L 639,475 L 639,476 L 640,476 L 640,477 L 640,478 L 639,478 L 638,478 L 638,479 L 637,479 L 636,479 L 635,479 L 635,480 L 633,480 L 632,480 L 632,481 L 631,481 L 631,482 L 630,482 L 630,481 L 630,480 L 629,480 L 630,480 L 629,479 L 628,479 L 627,479 L 627,480 L 627,479 L 627,480 L 626,479 L 625,479 L 625,480 L 624,480 L 624,481 L 623,481 L 623,482 L 622,482 L 622,483 L 621,483 L 620,484 L 620,485 L 619,485 L 619,484 L 620,484 L 620,483 L 619,483 L 619,482 L 619,481 L 618,481 L 618,480 L 617,480 L 617,479 L 616,479 L 616,480 L 615,480 L 615,481 L 614,481 L 613,481 L 613,482 L 612,482 L 611,482 L 611,481 L 610,481 L 609,481 L 609,482 L 608,482 L 607,482 L 607,481 L 607,482 L 606,482 L 606,481 L 606,482 L 605,482 L 605,483 L 604,483 L 603,483 L 603,485 L 603,486 L 603,487 L 603,488 L 602,489 L 602,490 L 602,489 L 602,490 L 601,490 L 601,491 L 601,492 L 600,492 L 600,493 L 599,493 L 599,492 L 599,491 L 598,491 L 598,492 L 597,492 L 597,493 L 596,493 L 595,493 L 595,492 L 594,492 L 594,491 L 593,491 L 592,491 L 592,490 L 591,490 L 591,489 L 590,489 L 590,488 L 589,488 L 588,488 L 588,487 L 587,487 L 587,486 L 586,486 L 585,486 L 584,485 L 584,484 L 584,483 L 583,483 L 583,482 L 582,482 L 581,482 L 580,482 L 579,482 L 578,482 L 577,482 L 577,483 L 576,484 L 575,485 L 575,486 L 574,488 L 574,489 L 573,490 L 572,491 L 571,492 L 570,492 L 570,493 L 569,493 L 568,494 L 567,494 L 567,493 L 566,493 L 566,492 L 565,492 L 564,492 L 564,493 L 564,494 L 563,494 L 563,495 L 562,495 L 563,495 L 563,496 L 562,496 L 562,497 L 562,498 L 561,498 L 561,499 L 560,499 L 560,500 L 559,500 L 558,500 L 558,501 L 557,501 L 556,501 L 556,502 L 556,503 L 556,504 L 556,505 L 555,505 L 554,506 L 553,505 L 552,504 L 552,503 L 551,503 L 551,502 L 550,502 L 550,501 L 549,501 L 549,500 L 549,499 L 549,498 L 548,498 L 547,498 L 547,497 L 547,496 L 546,497 L 546,498 L 545,497 L 544,497 L 544,496 L 543,496 L 543,495 L 544,495 L 544,494 L 543,494 L 543,493 L 543,492 L 542,492 L 541,492 L 541,491 L 540,492 L 539,492 L 539,493 L 539,494 L 539,495 L 538,496 L 537,496 L 537,497 L 536,497 L 535,497 L 534,497 L 533,497 L 533,498 L 532,498 L 532,497 L 531,497 L 532,497 L 531,496 L 531,495 L 530,494 L 530,493 L 529,493 L 528,493 L 527,493 L 526,493 L 524,492 L 523,492 L 523,493 L 522,493 L 522,494 L 521,495 L 521,496 L 520,497 L 520,496 L 520,495 L 519,495 L 519,494 L 518,494 L 517,494 L 517,493 L 516,493 L 515,493 L 515,492 L 515,491 L 515,490 L 515,489 L 514,488 L 513,488 L 513,487 L 513,488 L 513,487 L 512,487 L 511,487 L 511,486 L 510,486 L 510,485 L 510,484 L 509,484 L 509,483 L 508,483 L 507,482 L 507,481 L 507,480 L 506,480 L 505,480 L 504,480 L 503,480 L 503,479 L 503,480 L 502,480 L 501,480 L 500,480 L 499,480 L 498,480 L 497,480 L 496,480 L 496,481 L 495,482 L 495,481 L 495,482 L 494,482 L 493,482 L 493,481 L 493,480 L 493,479 L 493,478 L 493,476 L 494,476 L 494,475 L 495,475 L 495,474 L 496,474 L 496,473 L 497,473 L 497,472 L 497,471 L 498,471 L 498,470 L 498,469 L 499,469 L 499,468 L 499,467 L 499,466 L 500,466 L 500,465 L 499,465 L 498,465 L 497,465 L 497,464 L 497,463 L 496,463 L 496,462 L 495,461 L 495,460 L 494,460 L 493,461 L 492,461 L 491,461 L 490,460 L 489,460 L 488,460 L 488,459 L 488,458 L 487,458 L 488,456 L 488,455 L 488,453 L 488,452 L 489,452 L 489,451 L 489,450 L 490,449 L 491,448 L 491,447 L 491,446 L 492,446 L 492,445 L 491,444 L 492,444 L 492,443 L 492,442 L 492,441 L 491,441 L 491,440 L 491,439 L 491,438 L 490,438 L 490,439 L 489,439 L 488,439 L 487,439 L 486,439 L 486,438 L 486,437 L 486,436 L 486,435 L 486,434 L 486,433 L 485,433 L 486,432 L 485,432 L 485,431 L 485,430 L 486,430 L 487,430 L 487,429 L 488,429 L 488,428 L 489,428 L 490,428 L 490,427 L 491,427 L 491,426 L 492,425 L 492,424 L 494,424 L 495,424 L 496,423 L 495,422 L 494,422 L 494,421 L 493,420 L 494,419 L 494,418 L 495,418 L 495,417 L 496,417 L 497,417 L 498,417 L 499,417 L 499,418 L 500,418 L 500,419 L 501,419 L 502,420 L 503,420 L 503,421 L 503,422 L 502,422 L 502,423 L 502,424 " />
</g>
<g id="dep26" inkscape:label="DROME">
<path d="M 401,296 L 401,295 L 402,295 L 403,294 L 403,293 L 403,292 L 404,291 L 404,290 L 405,290 L 405,289 L 405,288 L 404,288 L 404,287 L 404,286 L 403,286 L 403,285 L 402,285 L 402,284 L 401,283 L 401,282 L 401,281 L 400,281 L 400,280 L 401,280 L 400,279 L 400,278 L 399,278 L 399,277 L 398,277 L 398,276 L 399,276 L 399,275 L 399,274 L 399,273 L 399,272 L 399,271 L 400,270 L 401,270 L 401,269 L 401,268 L 401,267 L 400,267 L 399,267 L 399,266 L 398,266 L 397,266 L 397,265 L 397,264 L 397,263 L 398,263 L 397,261 L 397,260 L 396,259 L 395,259 L 395,258 L 394,257 L 394,256 L 394,255 L 395,254 L 396,253 L 396,252 L 397,252 L 397,251 L 397,250 L 396,250 L 395,250 L 395,249 L 394,249 L 394,248 L 395,248 L 395,247 L 395,246 L 394,246 L 394,245 L 394,244 L 394,243 L 395,243 L 395,242 L 394,242 L 394,241 L 394,240 L 393,239 L 393,238 L 393,237 L 393,236 L 393,235 L 394,234 L 394,233 L 394,232 L 394,231 L 394,230 L 394,229 L 394,228 L 394,227 L 393,226 L 394,226 L 395,226 L 395,225 L 396,225 L 397,225 L 398,225 L 399,225 L 399,224 L 400,224 L 400,225 L 400,226 L 403,226 L 403,225 L 404,225 L 405,225 L 405,224 L 406,224 L 405,224 L 406,224 L 406,223 L 407,223 L 407,222 L 408,222 L 408,221 L 409,221 L 410,221 L 411,221 L 411,220 L 411,221 L 411,220 L 412,221 L 411,221 L 412,221 L 412,220 L 413,220 L 413,219 L 414,219 L 415,219 L 415,218 L 416,218 L 417,218 L 418,218 L 420,222 L 421,222 L 422,222 L 423,222 L 424,222 L 425,223 L 425,224 L 425,225 L 426,226 L 426,227 L 426,228 L 427,228 L 428,228 L 428,227 L 429,227 L 430,227 L 431,227 L 431,226 L 432,226 L 432,225 L 433,225 L 434,225 L 435,225 L 434,225 L 434,226 L 434,227 L 434,228 L 433,229 L 433,230 L 434,230 L 434,231 L 433,231 L 433,232 L 433,233 L 433,234 L 434,234 L 434,235 L 434,234 L 435,235 L 435,234 L 436,234 L 436,233 L 436,232 L 437,232 L 437,233 L 437,232 L 437,233 L 437,234 L 438,234 L 439,234 L 440,234 L 440,235 L 440,236 L 440,237 L 441,237 L 441,238 L 442,238 L 443,239 L 442,239 L 441,239 L 440,239 L 439,240 L 438,240 L 439,241 L 438,241 L 438,242 L 438,243 L 439,242 L 439,243 L 440,245 L 440,246 L 441,247 L 441,248 L 441,249 L 442,249 L 442,250 L 441,250 L 441,251 L 440,251 L 441,251 L 441,252 L 442,252 L 442,253 L 441,253 L 441,254 L 441,255 L 441,256 L 441,257 L 440,258 L 440,259 L 439,259 L 439,260 L 438,260 L 438,261 L 438,262 L 438,263 L 437,263 L 436,263 L 436,264 L 436,263 L 435,263 L 435,264 L 436,265 L 436,264 L 437,264 L 437,265 L 438,265 L 438,266 L 439,266 L 439,265 L 440,265 L 440,264 L 440,263 L 441,263 L 441,262 L 442,262 L 443,262 L 444,262 L 445,263 L 446,263 L 447,263 L 447,264 L 447,265 L 448,265 L 449,265 L 449,266 L 450,266 L 451,266 L 451,267 L 452,267 L 453,266 L 454,266 L 455,266 L 456,266 L 457,266 L 457,267 L 456,267 L 457,267 L 458,268 L 458,267 L 459,267 L 459,266 L 460,266 L 461,266 L 461,267 L 461,268 L 462,268 L 463,268 L 464,268 L 464,269 L 465,269 L 466,269 L 466,270 L 467,270 L 468,270 L 468,269 L 467,269 L 467,268 L 466,268 L 466,267 L 466,266 L 466,267 L 467,267 L 467,268 L 468,268 L 467,268 L 468,268 L 468,269 L 468,268 L 469,268 L 470,268 L 470,267 L 471,267 L 471,266 L 471,267 L 472,267 L 472,266 L 473,266 L 472,265 L 473,265 L 473,264 L 474,264 L 474,263 L 475,263 L 475,262 L 475,261 L 476,261 L 477,261 L 478,261 L 478,262 L 479,262 L 479,263 L 480,263 L 479,264 L 479,263 L 478,263 L 477,263 L 477,264 L 477,265 L 477,266 L 476,266 L 476,267 L 476,268 L 476,269 L 478,270 L 478,271 L 478,272 L 479,272 L 478,273 L 478,274 L 479,275 L 479,276 L 480,276 L 480,277 L 479,278 L 479,279 L 478,281 L 478,282 L 479,288 L 479,289 L 479,290 L 479,292 L 479,293 L 479,294 L 478,295 L 478,297 L 478,298 L 478,299 L 478,300 L 477,304 L 477,306 L 478,307 L 479,307 L 480,307 L 479,307 L 479,308 L 479,309 L 479,310 L 478,310 L 477,310 L 477,311 L 477,312 L 478,312 L 479,312 L 479,313 L 480,313 L 481,314 L 483,314 L 484,314 L 484,315 L 485,315 L 486,315 L 487,316 L 488,316 L 489,316 L 489,315 L 488,315 L 489,315 L 489,314 L 488,314 L 488,313 L 487,313 L 487,311 L 488,312 L 489,312 L 490,313 L 491,313 L 491,314 L 492,314 L 492,315 L 492,316 L 492,317 L 493,317 L 494,317 L 495,317 L 495,318 L 496,318 L 497,318 L 498,318 L 498,319 L 498,320 L 498,321 L 499,321 L 499,322 L 500,322 L 500,323 L 501,323 L 501,324 L 502,324 L 503,323 L 504,323 L 505,323 L 506,323 L 506,324 L 507,324 L 507,323 L 507,322 L 508,322 L 508,323 L 508,324 L 509,324 L 509,325 L 510,325 L 511,325 L 512,325 L 512,326 L 513,326 L 513,327 L 514,327 L 514,328 L 515,328 L 515,327 L 515,328 L 515,327 L 516,327 L 516,328 L 516,327 L 517,327 L 518,327 L 519,327 L 519,326 L 520,326 L 521,326 L 522,326 L 523,327 L 523,328 L 524,329 L 523,329 L 523,330 L 522,330 L 521,330 L 521,331 L 520,331 L 520,332 L 520,333 L 519,334 L 519,335 L 518,335 L 517,335 L 516,335 L 515,335 L 515,334 L 514,334 L 514,335 L 513,335 L 514,335 L 514,336 L 513,336 L 512,336 L 512,337 L 512,338 L 511,338 L 510,338 L 510,337 L 509,337 L 509,338 L 508,338 L 508,337 L 507,337 L 506,337 L 506,336 L 505,336 L 504,336 L 504,337 L 503,336 L 502,336 L 502,335 L 501,335 L 501,336 L 500,336 L 500,337 L 500,338 L 500,339 L 500,340 L 501,340 L 501,341 L 501,342 L 501,343 L 500,343 L 500,344 L 500,345 L 499,345 L 499,346 L 499,347 L 499,348 L 498,348 L 497,349 L 498,349 L 497,349 L 497,350 L 498,350 L 497,350 L 496,351 L 496,352 L 496,353 L 496,354 L 495,354 L 495,355 L 496,355 L 496,356 L 497,356 L 497,357 L 498,357 L 499,357 L 499,356 L 499,357 L 500,357 L 500,358 L 501,358 L 501,359 L 502,359 L 502,360 L 503,360 L 503,361 L 504,362 L 503,362 L 503,363 L 502,363 L 501,362 L 500,362 L 500,363 L 499,363 L 499,364 L 499,365 L 499,366 L 498,367 L 498,368 L 497,368 L 497,369 L 496,369 L 495,369 L 495,368 L 494,368 L 493,368 L 493,367 L 492,367 L 491,367 L 491,368 L 491,367 L 490,367 L 490,366 L 489,366 L 488,366 L 487,366 L 487,365 L 486,365 L 485,365 L 484,365 L 483,365 L 482,365 L 481,365 L 481,364 L 480,364 L 480,363 L 479,363 L 478,363 L 478,364 L 478,365 L 478,366 L 479,366 L 479,367 L 479,368 L 480,368 L 479,368 L 479,369 L 478,369 L 479,369 L 479,370 L 479,371 L 479,372 L 480,373 L 481,373 L 482,373 L 482,374 L 483,374 L 484,374 L 483,374 L 484,374 L 483,374 L 483,376 L 482,376 L 482,377 L 481,377 L 480,377 L 480,376 L 479,376 L 478,376 L 478,375 L 477,375 L 476,375 L 475,375 L 475,376 L 474,376 L 474,377 L 474,378 L 475,378 L 476,379 L 476,380 L 476,381 L 477,382 L 477,383 L 477,384 L 477,385 L 476,385 L 475,385 L 476,385 L 476,386 L 476,387 L 477,386 L 477,387 L 477,386 L 478,386 L 478,387 L 479,386 L 480,387 L 480,388 L 480,389 L 481,389 L 482,389 L 482,390 L 483,391 L 483,392 L 484,392 L 484,391 L 485,390 L 486,390 L 487,389 L 487,390 L 488,390 L 489,391 L 489,392 L 490,393 L 490,392 L 490,393 L 491,393 L 491,392 L 491,393 L 491,392 L 492,392 L 493,392 L 494,392 L 495,392 L 496,392 L 497,392 L 498,392 L 499,392 L 500,392 L 500,391 L 500,392 L 501,392 L 501,393 L 500,393 L 500,394 L 499,394 L 499,395 L 498,395 L 498,396 L 498,397 L 498,396 L 499,396 L 500,396 L 500,397 L 501,397 L 502,397 L 502,398 L 502,399 L 501,399 L 501,400 L 501,401 L 502,401 L 502,402 L 503,402 L 503,403 L 504,403 L 505,402 L 506,402 L 507,402 L 508,403 L 508,404 L 507,404 L 507,405 L 507,406 L 507,407 L 507,408 L 507,409 L 508,409 L 507,410 L 508,410 L 508,411 L 507,411 L 507,412 L 507,413 L 508,413 L 508,414 L 508,415 L 509,415 L 509,416 L 508,416 L 507,416 L 507,417 L 506,417 L 505,417 L 504,417 L 504,418 L 504,419 L 503,420 L 504,420 L 504,421 L 505,421 L 506,421 L 507,421 L 508,421 L 508,423 L 508,424 L 507,424 L 506,424 L 505,424 L 504,424 L 503,424 L 502,424 L 502,423 L 502,422 L 503,422 L 503,421 L 503,420 L 502,420 L 501,419 L 500,419 L 500,418 L 499,418 L 499,417 L 498,417 L 497,417 L 496,417 L 495,417 L 495,418 L 494,418 L 494,419 L 493,420 L 494,421 L 494,422 L 495,422 L 496,423 L 495,424 L 494,424 L 492,424 L 492,425 L 491,426 L 491,427 L 490,427 L 490,428 L 489,428 L 488,428 L 488,429 L 487,429 L 487,430 L 486,430 L 485,430 L 484,430 L 483,430 L 482,430 L 481,430 L 480,430 L 479,430 L 479,429 L 479,428 L 479,427 L 478,427 L 477,426 L 478,426 L 478,425 L 477,425 L 478,425 L 477,425 L 477,424 L 476,425 L 475,424 L 474,424 L 473,424 L 472,424 L 471,424 L 471,423 L 471,422 L 471,421 L 471,420 L 471,419 L 471,418 L 470,417 L 470,416 L 471,416 L 470,416 L 470,415 L 469,415 L 468,414 L 467,414 L 466,414 L 466,415 L 465,415 L 465,416 L 464,416 L 464,415 L 463,415 L 462,415 L 461,415 L 460,415 L 459,414 L 458,413 L 457,413 L 456,412 L 455,412 L 454,411 L 453,411 L 452,411 L 452,414 L 451,414 L 451,415 L 451,414 L 450,414 L 449,414 L 448,414 L 447,414 L 447,413 L 447,414 L 446,413 L 445,413 L 445,414 L 445,413 L 444,413 L 443,413 L 443,412 L 443,413 L 443,412 L 442,412 L 442,411 L 441,411 L 441,410 L 442,410 L 442,409 L 442,408 L 442,407 L 442,406 L 442,405 L 441,405 L 440,405 L 441,405 L 440,404 L 440,403 L 441,403 L 441,402 L 442,402 L 442,401 L 443,401 L 443,400 L 443,399 L 443,398 L 444,398 L 443,398 L 443,397 L 442,397 L 441,397 L 441,398 L 441,399 L 440,399 L 440,400 L 439,400 L 439,401 L 438,401 L 437,402 L 436,402 L 436,403 L 435,403 L 436,404 L 435,403 L 434,403 L 433,403 L 433,402 L 433,403 L 432,403 L 432,402 L 431,402 L 431,401 L 430,401 L 430,400 L 430,399 L 430,398 L 429,398 L 429,399 L 428,399 L 427,400 L 426,400 L 425,400 L 425,401 L 424,401 L 423,402 L 422,402 L 421,402 L 420,402 L 420,403 L 419,403 L 418,403 L 418,404 L 417,404 L 417,405 L 416,405 L 415,406 L 414,406 L 414,407 L 413,407 L 412,407 L 411,407 L 410,407 L 409,408 L 409,407 L 410,406 L 409,406 L 409,407 L 408,407 L 407,407 L 406,407 L 406,408 L 405,408 L 405,409 L 404,409 L 404,410 L 403,410 L 403,411 L 402,411 L 402,412 L 401,412 L 401,413 L 400,413 L 399,413 L 399,412 L 398,411 L 399,410 L 398,409 L 399,409 L 398,408 L 399,408 L 398,407 L 398,406 L 397,406 L 398,406 L 398,405 L 397,405 L 397,404 L 397,403 L 397,402 L 397,401 L 397,400 L 396,400 L 396,399 L 395,398 L 394,398 L 394,397 L 393,397 L 393,398 L 393,397 L 392,397 L 392,396 L 390,396 L 389,396 L 388,396 L 387,396 L 386,396 L 386,397 L 384,397 L 383,397 L 382,397 L 381,397 L 380,397 L 379,396 L 378,396 L 378,395 L 378,394 L 378,393 L 377,392 L 377,391 L 377,390 L 378,389 L 378,388 L 378,387 L 378,386 L 379,386 L 379,385 L 379,384 L 379,383 L 379,382 L 379,381 L 379,380 L 379,379 L 380,378 L 380,377 L 381,377 L 382,377 L 382,376 L 383,376 L 383,375 L 383,374 L 384,373 L 384,372 L 384,371 L 383,370 L 383,369 L 383,368 L 382,368 L 382,367 L 382,366 L 382,365 L 382,364 L 382,363 L 383,363 L 383,362 L 384,362 L 384,361 L 384,360 L 384,359 L 383,359 L 383,358 L 383,359 L 382,358 L 382,357 L 382,356 L 382,355 L 383,355 L 384,355 L 384,354 L 384,353 L 384,352 L 385,351 L 386,351 L 387,351 L 388,351 L 388,350 L 388,349 L 389,349 L 389,348 L 388,348 L 388,347 L 389,346 L 389,345 L 390,345 L 390,344 L 390,343 L 391,342 L 392,341 L 392,340 L 393,339 L 393,338 L 392,337 L 392,336 L 393,336 L 393,335 L 393,334 L 393,333 L 392,333 L 392,332 L 392,331 L 392,330 L 392,329 L 391,329 L 391,328 L 390,327 L 391,326 L 391,325 L 390,324 L 390,323 L 390,322 L 391,321 L 391,320 L 390,319 L 390,318 L 390,317 L 391,317 L 392,316 L 393,316 L 393,315 L 394,315 L 394,314 L 394,313 L 394,312 L 395,312 L 395,311 L 396,311 L 396,310 L 397,310 L 397,309 L 397,308 L 397,307 L 397,306 L 398,306 L 399,306 L 400,306 L 400,305 L 400,304 L 400,303 L 401,302 L 402,301 L 402,300 L 402,299 L 401,298 L 401,297 L 401,296 " />
<path d="M 408,389 L 408,390 L 407,390 L 407,391 L 406,391 L 406,392 L 405,392 L 406,392 L 407,392 L 407,393 L 408,393 L 409,394 L 408,394 L 408,395 L 407,395 L 407,396 L 407,397 L 408,397 L 408,398 L 408,399 L 408,400 L 408,399 L 409,399 L 410,399 L 411,399 L 412,399 L 413,399 L 414,399 L 415,399 L 415,400 L 416,400 L 417,400 L 418,400 L 419,400 L 419,401 L 420,401 L 420,400 L 420,399 L 421,399 L 421,398 L 421,397 L 422,397 L 421,397 L 421,396 L 422,396 L 423,396 L 423,395 L 423,394 L 423,393 L 424,393 L 424,392 L 425,392 L 425,391 L 424,391 L 424,390 L 424,389 L 425,389 L 426,389 L 427,389 L 428,389 L 428,388 L 429,388 L 429,387 L 430,387 L 430,386 L 431,386 L 430,386 L 430,385 L 429,385 L 428,385 L 428,386 L 427,386 L 427,385 L 426,385 L 426,384 L 425,384 L 424,384 L 423,384 L 423,383 L 423,381 L 424,381 L 423,381 L 424,381 L 424,380 L 423,380 L 423,381 L 422,380 L 421,380 L 421,379 L 420,379 L 420,378 L 419,378 L 418,378 L 418,377 L 417,377 L 417,378 L 417,379 L 416,379 L 415,379 L 415,380 L 414,380 L 413,380 L 413,381 L 412,381 L 411,381 L 411,382 L 411,383 L 410,383 L 410,384 L 410,385 L 410,387 L 409,388 L 408,388 L 408,389 " />
</g>
<g id="dep38" class="dep" inkscape:label="ISERE">
<path d="M 456,124 L 456,123 L 457,123 L 457,122 L 458,122 L 459,123 L 460,123 L 460,124 L 461,124 L 461,125 L 462,125 L 462,126 L 463,126 L 464,126 L 464,127 L 465,127 L 466,128 L 466,129 L 466,130 L 467,130 L 468,130 L 468,131 L 468,132 L 467,132 L 466,133 L 467,134 L 467,135 L 467,136 L 468,136 L 468,137 L 469,137 L 469,138 L 470,139 L 471,140 L 472,140 L 472,141 L 473,142 L 473,143 L 475,145 L 476,146 L 477,146 L 477,147 L 478,147 L 478,148 L 479,148 L 479,149 L 480,150 L 480,151 L 481,151 L 482,151 L 483,152 L 483,153 L 484,154 L 484,153 L 485,153 L 485,154 L 486,154 L 486,155 L 486,156 L 485,156 L 484,156 L 484,155 L 484,154 L 483,154 L 482,154 L 482,155 L 483,155 L 482,155 L 482,156 L 483,156 L 483,157 L 484,157 L 484,158 L 483,158 L 484,158 L 485,158 L 485,159 L 486,159 L 486,158 L 487,159 L 488,159 L 488,160 L 488,161 L 489,161 L 490,162 L 490,163 L 490,164 L 490,165 L 491,165 L 491,166 L 492,167 L 492,168 L 492,169 L 493,169 L 492,169 L 493,169 L 493,170 L 492,170 L 493,170 L 493,171 L 494,172 L 495,173 L 495,174 L 495,175 L 496,175 L 496,176 L 497,176 L 497,177 L 498,177 L 498,176 L 498,177 L 499,177 L 498,177 L 499,177 L 499,178 L 498,178 L 499,178 L 499,179 L 499,180 L 500,180 L 500,181 L 499,181 L 499,180 L 499,181 L 499,182 L 500,183 L 501,183 L 501,184 L 502,184 L 502,185 L 503,185 L 503,186 L 502,186 L 503,186 L 504,186 L 504,187 L 504,188 L 504,189 L 505,189 L 505,190 L 505,191 L 506,191 L 506,192 L 507,192 L 507,193 L 507,194 L 507,195 L 507,196 L 507,197 L 508,197 L 508,198 L 508,199 L 509,199 L 510,199 L 510,198 L 511,198 L 512,198 L 513,198 L 513,197 L 513,198 L 514,198 L 515,198 L 515,199 L 516,199 L 516,200 L 517,200 L 517,201 L 518,201 L 519,201 L 520,201 L 521,201 L 521,202 L 522,202 L 522,203 L 523,203 L 524,203 L 525,203 L 525,204 L 526,204 L 527,204 L 527,205 L 527,206 L 528,206 L 529,206 L 529,205 L 529,204 L 530,204 L 529,204 L 530,204 L 530,203 L 531,203 L 531,202 L 531,201 L 530,201 L 530,202 L 529,203 L 528,203 L 528,202 L 528,201 L 528,200 L 528,199 L 528,198 L 529,198 L 529,197 L 530,197 L 530,196 L 530,195 L 530,194 L 530,193 L 530,192 L 529,192 L 529,191 L 530,191 L 532,190 L 534,189 L 535,188 L 536,188 L 537,188 L 537,189 L 537,190 L 538,190 L 538,191 L 539,191 L 540,191 L 541,191 L 541,192 L 540,194 L 541,194 L 541,195 L 543,196 L 546,197 L 546,196 L 547,196 L 548,196 L 549,196 L 550,196 L 551,196 L 552,196 L 551,196 L 551,197 L 551,198 L 552,198 L 553,198 L 553,197 L 554,197 L 555,197 L 555,196 L 555,197 L 556,197 L 556,198 L 556,199 L 557,199 L 557,200 L 557,201 L 558,201 L 559,201 L 559,202 L 560,202 L 560,203 L 561,203 L 561,204 L 562,204 L 562,205 L 562,206 L 563,206 L 563,207 L 563,208 L 564,208 L 564,209 L 563,209 L 563,210 L 562,210 L 561,210 L 561,211 L 562,211 L 563,211 L 564,211 L 564,212 L 564,213 L 564,214 L 564,215 L 563,215 L 563,216 L 563,217 L 564,217 L 563,217 L 562,217 L 562,218 L 561,218 L 560,218 L 560,219 L 559,219 L 560,219 L 560,220 L 559,220 L 559,221 L 558,221 L 558,222 L 557,222 L 557,223 L 557,224 L 557,225 L 557,226 L 558,226 L 558,227 L 558,228 L 558,229 L 557,229 L 557,230 L 556,230 L 557,231 L 557,232 L 557,233 L 558,233 L 558,234 L 559,234 L 559,235 L 558,235 L 558,236 L 559,236 L 559,237 L 560,237 L 561,237 L 561,238 L 561,240 L 561,241 L 561,242 L 561,243 L 560,243 L 561,243 L 560,243 L 560,244 L 559,244 L 560,244 L 560,245 L 560,246 L 559,246 L 560,246 L 561,247 L 561,246 L 561,247 L 562,247 L 562,246 L 563,246 L 563,245 L 564,244 L 565,244 L 566,245 L 567,245 L 568,246 L 568,247 L 569,247 L 569,248 L 570,248 L 570,247 L 571,247 L 572,247 L 572,246 L 573,246 L 573,247 L 574,247 L 574,248 L 575,248 L 574,249 L 575,249 L 574,249 L 574,250 L 574,251 L 573,251 L 572,252 L 572,253 L 571,253 L 570,253 L 570,254 L 570,255 L 570,256 L 571,256 L 570,256 L 571,256 L 571,257 L 571,258 L 572,258 L 571,258 L 571,259 L 572,259 L 572,260 L 572,261 L 571,261 L 570,261 L 569,261 L 569,262 L 569,263 L 569,264 L 569,265 L 568,265 L 568,266 L 568,267 L 568,268 L 568,269 L 568,270 L 568,271 L 571,272 L 572,272 L 572,273 L 573,273 L 574,273 L 575,273 L 576,273 L 577,272 L 578,272 L 579,272 L 580,272 L 580,271 L 581,271 L 581,272 L 582,271 L 582,272 L 583,272 L 582,273 L 582,274 L 582,275 L 582,276 L 583,277 L 584,277 L 584,278 L 583,278 L 583,279 L 583,280 L 583,281 L 584,281 L 585,281 L 585,282 L 586,282 L 587,282 L 587,283 L 588,283 L 587,283 L 587,284 L 587,285 L 587,286 L 587,287 L 588,287 L 587,287 L 587,288 L 588,288 L 588,289 L 587,289 L 587,290 L 588,290 L 588,291 L 588,292 L 587,292 L 587,293 L 587,294 L 587,295 L 587,296 L 587,297 L 588,297 L 588,298 L 587,298 L 586,298 L 585,299 L 585,298 L 584,298 L 583,298 L 583,297 L 583,296 L 582,296 L 582,295 L 581,295 L 581,294 L 580,294 L 579,294 L 579,295 L 578,295 L 577,295 L 576,296 L 576,297 L 575,297 L 575,298 L 574,298 L 573,298 L 572,298 L 571,298 L 570,298 L 569,298 L 569,297 L 568,297 L 568,298 L 567,298 L 566,298 L 565,298 L 565,299 L 564,299 L 564,298 L 563,298 L 562,298 L 561,298 L 561,297 L 560,297 L 559,297 L 559,298 L 559,299 L 558,299 L 558,300 L 557,300 L 557,301 L 557,300 L 557,301 L 556,301 L 556,302 L 555,302 L 555,303 L 554,303 L 553,303 L 553,304 L 552,304 L 552,305 L 551,305 L 551,306 L 551,305 L 550,305 L 550,304 L 549,304 L 549,303 L 548,303 L 548,302 L 547,302 L 546,302 L 545,303 L 545,304 L 545,305 L 544,305 L 543,305 L 543,306 L 542,306 L 542,305 L 541,305 L 541,306 L 540,306 L 540,307 L 539,307 L 538,307 L 538,308 L 538,309 L 539,309 L 539,310 L 540,310 L 541,310 L 541,311 L 541,312 L 542,312 L 541,312 L 541,313 L 540,313 L 539,313 L 539,314 L 538,314 L 538,315 L 538,316 L 537,316 L 537,315 L 536,315 L 536,316 L 535,316 L 535,317 L 534,317 L 533,317 L 533,316 L 532,316 L 532,317 L 531,317 L 530,317 L 530,318 L 531,318 L 530,318 L 529,318 L 528,318 L 527,318 L 526,318 L 525,318 L 525,317 L 524,317 L 523,317 L 523,316 L 523,317 L 523,318 L 523,319 L 523,320 L 522,321 L 522,322 L 521,323 L 521,324 L 521,325 L 520,325 L 520,326 L 519,326 L 519,327 L 518,327 L 517,327 L 516,327 L 516,328 L 516,327 L 515,327 L 515,328 L 515,327 L 515,328 L 514,328 L 514,327 L 513,327 L 513,326 L 512,326 L 512,325 L 511,325 L 510,325 L 509,325 L 509,324 L 508,324 L 508,323 L 508,322 L 507,322 L 507,323 L 507,324 L 506,324 L 506,323 L 505,323 L 504,323 L 503,323 L 502,324 L 501,324 L 501,323 L 500,323 L 500,322 L 499,322 L 499,321 L 498,321 L 498,320 L 498,319 L 498,318 L 497,318 L 496,318 L 495,318 L 495,317 L 494,317 L 493,317 L 492,317 L 492,316 L 492,315 L 492,314 L 491,314 L 491,313 L 490,313 L 489,312 L 488,312 L 487,311 L 487,313 L 488,313 L 488,314 L 489,314 L 489,315 L 488,315 L 489,315 L 489,316 L 488,316 L 487,316 L 486,315 L 485,315 L 484,315 L 484,314 L 483,314 L 481,314 L 480,313 L 479,313 L 479,312 L 478,312 L 477,312 L 477,311 L 477,310 L 478,310 L 479,310 L 479,309 L 479,308 L 479,307 L 480,307 L 479,307 L 478,307 L 477,306 L 477,304 L 478,300 L 478,299 L 478,298 L 478,297 L 478,295 L 479,294 L 479,293 L 479,292 L 479,290 L 479,289 L 479,288 L 478,282 L 478,281 L 479,279 L 479,278 L 480,277 L 480,276 L 479,276 L 479,275 L 478,274 L 478,273 L 479,272 L 478,272 L 478,271 L 478,270 L 476,269 L 476,268 L 476,267 L 476,266 L 477,266 L 477,265 L 477,264 L 477,263 L 478,263 L 479,263 L 479,264 L 480,263 L 479,263 L 479,262 L 478,262 L 478,261 L 477,261 L 476,261 L 475,261 L 475,262 L 475,263 L 474,263 L 474,264 L 473,264 L 473,265 L 472,265 L 473,266 L 472,266 L 472,267 L 471,267 L 471,266 L 471,267 L 470,267 L 470,268 L 469,268 L 468,268 L 468,269 L 468,268 L 467,268 L 468,268 L 467,268 L 467,267 L 466,267 L 466,266 L 466,267 L 466,268 L 467,268 L 467,269 L 468,269 L 468,270 L 467,270 L 466,270 L 466,269 L 465,269 L 464,269 L 464,268 L 463,268 L 462,268 L 461,268 L 461,267 L 461,266 L 460,266 L 459,266 L 459,267 L 458,267 L 458,268 L 457,267 L 456,267 L 457,267 L 457,266 L 456,266 L 455,266 L 454,266 L 453,266 L 452,267 L 451,267 L 451,266 L 450,266 L 449,266 L 449,265 L 448,265 L 447,265 L 447,264 L 447,263 L 446,263 L 445,263 L 444,262 L 443,262 L 442,262 L 441,262 L 441,263 L 440,263 L 440,264 L 440,265 L 439,265 L 439,266 L 438,266 L 438,265 L 437,265 L 437,264 L 436,264 L 436,265 L 435,264 L 435,263 L 436,263 L 436,264 L 436,263 L 437,263 L 438,263 L 438,262 L 438,261 L 438,260 L 439,260 L 439,259 L 440,259 L 440,258 L 441,257 L 441,256 L 441,255 L 441,254 L 441,253 L 442,253 L 442,252 L 441,252 L 441,251 L 440,251 L 441,251 L 441,250 L 442,250 L 442,249 L 441,249 L 441,248 L 441,247 L 440,246 L 440,245 L 439,243 L 439,242 L 438,243 L 438,242 L 438,241 L 439,241 L 438,240 L 439,240 L 440,239 L 441,239 L 442,239 L 443,239 L 442,238 L 441,238 L 441,237 L 440,237 L 440,236 L 440,235 L 440,234 L 439,234 L 438,234 L 437,234 L 437,233 L 437,232 L 437,233 L 437,232 L 436,232 L 436,233 L 436,234 L 435,234 L 435,235 L 434,234 L 434,235 L 434,234 L 433,234 L 433,233 L 433,232 L 433,231 L 434,231 L 434,230 L 433,230 L 433,229 L 434,228 L 434,227 L 434,226 L 434,225 L 435,225 L 434,225 L 433,225 L 432,225 L 432,226 L 431,226 L 431,227 L 430,227 L 429,227 L 428,227 L 428,228 L 427,228 L 426,228 L 426,227 L 426,226 L 425,225 L 425,224 L 425,223 L 424,222 L 423,222 L 422,222 L 421,222 L 420,222 L 418,218 L 417,218 L 416,218 L 415,218 L 415,219 L 414,219 L 413,219 L 413,220 L 412,220 L 412,221 L 411,221 L 412,221 L 411,220 L 411,221 L 411,220 L 411,221 L 410,221 L 409,221 L 408,221 L 408,222 L 407,222 L 407,223 L 406,223 L 406,224 L 405,224 L 406,224 L 405,224 L 405,225 L 404,225 L 403,225 L 403,226 L 400,226 L 400,225 L 400,224 L 399,224 L 399,225 L 398,225 L 397,225 L 396,225 L 395,225 L 395,226 L 394,226 L 393,226 L 392,225 L 391,225 L 390,224 L 389,223 L 388,222 L 388,221 L 388,220 L 388,219 L 388,218 L 389,218 L 389,217 L 389,216 L 388,216 L 388,215 L 387,215 L 387,214 L 387,213 L 387,212 L 388,211 L 387,211 L 387,210 L 387,209 L 386,208 L 386,207 L 385,206 L 385,205 L 386,204 L 387,203 L 387,202 L 387,201 L 387,200 L 387,199 L 388,199 L 388,198 L 388,199 L 389,199 L 390,199 L 390,198 L 390,197 L 390,196 L 391,195 L 392,195 L 392,194 L 393,194 L 394,194 L 394,193 L 395,192 L 396,191 L 397,191 L 397,190 L 398,190 L 399,188 L 400,188 L 400,186 L 401,186 L 401,185 L 400,185 L 400,184 L 399,184 L 398,184 L 397,183 L 396,183 L 395,182 L 395,181 L 394,181 L 394,180 L 394,179 L 393,179 L 393,178 L 392,178 L 391,178 L 391,177 L 390,177 L 389,177 L 389,176 L 391,176 L 392,176 L 392,175 L 393,175 L 393,176 L 394,175 L 394,176 L 395,176 L 395,175 L 395,176 L 396,176 L 397,176 L 397,177 L 398,177 L 399,177 L 399,176 L 399,175 L 399,174 L 400,174 L 401,174 L 402,173 L 403,173 L 404,172 L 405,172 L 406,172 L 407,172 L 408,172 L 410,171 L 411,171 L 412,171 L 414,171 L 416,172 L 416,170 L 415,170 L 415,169 L 416,169 L 417,169 L 418,169 L 418,170 L 419,170 L 420,170 L 421,170 L 421,169 L 421,168 L 420,168 L 420,167 L 421,167 L 420,167 L 420,166 L 421,165 L 421,164 L 422,164 L 423,164 L 423,163 L 422,162 L 423,161 L 424,161 L 425,160 L 426,159 L 427,159 L 427,158 L 428,158 L 428,157 L 429,157 L 429,156 L 428,155 L 429,155 L 430,155 L 431,155 L 432,154 L 433,155 L 433,154 L 433,155 L 434,155 L 434,154 L 435,154 L 434,155 L 435,155 L 435,154 L 435,153 L 435,152 L 434,152 L 433,152 L 433,151 L 432,150 L 433,150 L 432,149 L 431,149 L 431,148 L 430,148 L 429,148 L 428,148 L 427,148 L 427,147 L 426,146 L 427,145 L 427,144 L 427,143 L 426,143 L 426,144 L 425,144 L 424,144 L 423,143 L 423,141 L 423,140 L 422,139 L 423,139 L 424,140 L 425,140 L 426,140 L 427,138 L 427,137 L 427,136 L 427,137 L 428,135 L 428,136 L 428,137 L 428,138 L 429,138 L 429,137 L 429,136 L 430,136 L 430,135 L 431,136 L 432,136 L 432,137 L 433,137 L 433,136 L 434,137 L 435,137 L 435,138 L 436,138 L 437,138 L 437,139 L 438,139 L 438,140 L 438,141 L 438,142 L 439,142 L 440,142 L 441,142 L 441,143 L 442,143 L 443,143 L 443,142 L 444,142 L 445,141 L 446,140 L 447,140 L 447,139 L 448,139 L 448,138 L 449,138 L 449,137 L 449,136 L 450,136 L 450,135 L 451,135 L 451,134 L 451,133 L 451,132 L 451,131 L 452,131 L 452,130 L 452,129 L 452,128 L 453,127 L 454,126 L 455,126 L 455,125 L 456,125 L 456,124 " />
</g>
<g id="dep01" inkscape:label="AIN">
<path d="M 389,65 L 389,64 L 389,63 L 390,63 L 390,62 L 390,61 L 390,60 L 390,59 L 390,58 L 391,58 L 391,57 L 392,56 L 392,55 L 392,54 L 393,53 L 393,52 L 393,51 L 393,50 L 394,49 L 394,48 L 395,47 L 395,46 L 395,45 L 395,44 L 395,43 L 395,42 L 395,41 L 395,40 L 396,39 L 396,38 L 397,37 L 397,36 L 398,36 L 398,35 L 398,34 L 399,33 L 399,32 L 399,31 L 399,30 L 399,29 L 399,28 L 399,27 L 399,26 L 400,26 L 400,25 L 401,24 L 402,23 L 402,22 L 402,21 L 402,20 L 402,19 L 402,18 L 402,17 L 403,17 L 403,16 L 403,15 L 404,15 L 404,14 L 404,13 L 405,14 L 405,13 L 405,12 L 405,13 L 406,13 L 407,14 L 406,14 L 405,14 L 405,15 L 406,15 L 406,16 L 406,15 L 407,15 L 407,14 L 408,14 L 408,15 L 409,15 L 409,14 L 408,14 L 408,13 L 409,13 L 410,13 L 411,13 L 411,14 L 412,14 L 413,14 L 414,15 L 413,15 L 414,15 L 414,16 L 415,16 L 415,17 L 416,17 L 417,17 L 418,17 L 418,18 L 419,18 L 420,18 L 421,18 L 421,17 L 422,17 L 423,17 L 423,16 L 424,16 L 424,15 L 424,16 L 425,16 L 425,17 L 426,17 L 426,16 L 427,16 L 427,15 L 428,15 L 429,15 L 428,15 L 428,14 L 429,14 L 430,14 L 431,14 L 432,14 L 432,15 L 432,14 L 432,13 L 432,12 L 433,12 L 433,13 L 434,13 L 434,14 L 435,14 L 436,14 L 437,14 L 436,14 L 436,15 L 437,15 L 437,16 L 438,16 L 437,17 L 437,18 L 438,18 L 438,19 L 438,20 L 438,21 L 439,21 L 439,20 L 440,21 L 440,22 L 441,22 L 442,22 L 443,23 L 443,24 L 444,24 L 444,23 L 445,23 L 445,24 L 446,24 L 447,24 L 448,24 L 449,24 L 450,24 L 449,24 L 450,24 L 450,25 L 451,25 L 450,25 L 451,25 L 451,26 L 451,25 L 451,26 L 451,27 L 452,27 L 451,27 L 451,28 L 450,28 L 449,28 L 450,29 L 450,30 L 449,30 L 449,29 L 449,30 L 450,30 L 451,31 L 452,32 L 453,32 L 453,33 L 453,32 L 454,32 L 455,32 L 455,33 L 456,34 L 456,33 L 456,34 L 457,34 L 457,35 L 458,35 L 458,36 L 457,36 L 457,37 L 456,37 L 457,37 L 457,38 L 458,38 L 458,39 L 458,40 L 458,41 L 459,41 L 459,42 L 459,41 L 459,42 L 460,42 L 459,42 L 460,42 L 461,42 L 462,43 L 461,43 L 461,44 L 462,44 L 462,45 L 462,46 L 462,47 L 462,48 L 463,48 L 463,47 L 463,46 L 463,45 L 463,44 L 463,43 L 463,42 L 463,41 L 464,41 L 464,42 L 465,42 L 464,42 L 464,43 L 465,43 L 465,44 L 465,45 L 466,46 L 466,47 L 466,46 L 467,46 L 468,46 L 468,45 L 469,45 L 470,46 L 470,47 L 470,48 L 470,49 L 470,50 L 469,50 L 469,51 L 469,52 L 469,53 L 468,53 L 468,54 L 469,54 L 470,54 L 470,55 L 471,55 L 472,55 L 473,55 L 473,54 L 473,55 L 474,54 L 474,55 L 475,55 L 476,55 L 477,55 L 477,54 L 478,54 L 479,54 L 479,53 L 480,53 L 480,52 L 481,52 L 481,51 L 481,50 L 482,50 L 483,50 L 484,50 L 485,50 L 485,49 L 486,48 L 486,47 L 486,46 L 487,45 L 487,44 L 487,43 L 488,43 L 489,43 L 490,43 L 490,42 L 490,41 L 491,41 L 491,42 L 491,43 L 491,44 L 492,44 L 493,44 L 494,44 L 494,45 L 495,45 L 496,45 L 496,46 L 497,47 L 497,46 L 498,46 L 499,46 L 500,48 L 500,49 L 500,50 L 500,51 L 500,52 L 500,53 L 500,54 L 501,55 L 502,54 L 503,54 L 504,54 L 505,54 L 506,54 L 506,53 L 506,54 L 507,54 L 508,54 L 509,54 L 510,54 L 511,54 L 512,54 L 513,54 L 514,54 L 515,54 L 516,54 L 517,53 L 518,52 L 518,53 L 518,54 L 519,53 L 520,53 L 520,52 L 520,51 L 521,51 L 521,50 L 522,50 L 523,50 L 523,49 L 524,49 L 524,48 L 524,47 L 524,46 L 524,45 L 525,45 L 526,45 L 527,46 L 527,45 L 527,44 L 528,44 L 528,43 L 528,42 L 529,42 L 529,41 L 529,40 L 530,40 L 530,39 L 530,38 L 531,38 L 531,37 L 532,36 L 532,35 L 532,36 L 532,35 L 532,36 L 532,35 L 533,35 L 534,35 L 534,34 L 535,34 L 535,33 L 536,33 L 535,33 L 536,33 L 536,32 L 537,32 L 537,31 L 538,31 L 538,30 L 538,29 L 539,29 L 539,28 L 540,27 L 539,27 L 540,27 L 539,27 L 540,27 L 540,26 L 541,26 L 543,27 L 545,27 L 545,28 L 546,28 L 546,29 L 547,29 L 548,29 L 549,30 L 550,31 L 551,32 L 552,33 L 552,32 L 552,33 L 553,32 L 553,33 L 554,33 L 554,34 L 554,35 L 553,36 L 553,37 L 553,38 L 552,38 L 552,39 L 551,39 L 550,39 L 550,40 L 551,40 L 550,40 L 551,40 L 550,40 L 550,41 L 550,42 L 549,42 L 549,43 L 549,44 L 548,44 L 548,45 L 549,45 L 548,45 L 548,46 L 549,46 L 549,47 L 548,47 L 549,47 L 548,47 L 548,48 L 547,48 L 547,49 L 546,49 L 547,49 L 547,50 L 547,51 L 548,51 L 547,51 L 548,51 L 547,51 L 548,52 L 549,52 L 549,53 L 549,54 L 549,55 L 549,54 L 549,55 L 548,57 L 547,57 L 546,57 L 546,56 L 545,56 L 544,56 L 543,56 L 543,57 L 542,56 L 541,56 L 541,57 L 541,58 L 540,58 L 540,59 L 539,58 L 538,57 L 538,58 L 537,58 L 537,59 L 537,58 L 537,59 L 537,58 L 537,59 L 536,59 L 536,60 L 535,60 L 535,61 L 534,61 L 534,60 L 533,61 L 534,61 L 534,62 L 533,62 L 533,61 L 533,62 L 533,61 L 532,61 L 531,62 L 531,63 L 531,64 L 530,65 L 531,65 L 533,66 L 534,66 L 534,67 L 534,68 L 534,69 L 533,69 L 533,70 L 532,70 L 532,71 L 532,72 L 531,73 L 531,74 L 531,75 L 531,76 L 530,76 L 529,77 L 528,77 L 527,77 L 526,77 L 525,77 L 525,78 L 524,78 L 524,79 L 523,79 L 522,79 L 522,80 L 521,81 L 522,81 L 522,82 L 522,83 L 522,84 L 522,85 L 521,85 L 520,85 L 519,85 L 518,85 L 518,84 L 517,84 L 516,83 L 516,82 L 515,82 L 515,81 L 514,81 L 514,82 L 513,82 L 514,82 L 514,83 L 514,84 L 513,85 L 513,86 L 513,87 L 512,87 L 512,88 L 512,89 L 512,90 L 513,90 L 513,91 L 513,92 L 512,92 L 512,93 L 513,94 L 513,95 L 513,96 L 513,97 L 512,97 L 512,98 L 513,98 L 513,99 L 513,100 L 513,101 L 513,102 L 514,103 L 515,103 L 515,104 L 516,104 L 516,105 L 516,106 L 516,107 L 516,108 L 516,109 L 516,110 L 515,110 L 515,111 L 516,111 L 515,111 L 515,112 L 515,113 L 516,114 L 516,115 L 515,117 L 515,118 L 515,119 L 514,121 L 514,123 L 514,124 L 513,124 L 513,125 L 513,127 L 513,128 L 512,129 L 512,130 L 511,130 L 511,131 L 511,132 L 511,133 L 511,134 L 511,135 L 511,136 L 511,137 L 511,138 L 511,139 L 511,140 L 511,141 L 511,142 L 511,143 L 511,144 L 511,145 L 510,145 L 510,146 L 510,147 L 511,148 L 510,148 L 510,149 L 509,149 L 509,150 L 508,151 L 507,152 L 506,151 L 505,151 L 504,151 L 503,151 L 502,151 L 501,151 L 501,152 L 501,153 L 502,153 L 502,154 L 502,155 L 502,156 L 502,157 L 500,158 L 500,159 L 500,160 L 500,161 L 500,162 L 500,163 L 499,164 L 497,164 L 496,164 L 495,165 L 495,166 L 494,167 L 494,168 L 493,169 L 492,168 L 492,167 L 491,166 L 491,165 L 490,165 L 490,164 L 490,163 L 490,162 L 489,161 L 488,161 L 488,160 L 488,159 L 487,159 L 486,158 L 486,159 L 485,159 L 485,158 L 484,158 L 483,158 L 484,158 L 484,157 L 483,157 L 483,156 L 482,156 L 482,155 L 483,155 L 482,155 L 482,154 L 483,154 L 484,154 L 484,155 L 484,156 L 485,156 L 486,156 L 486,155 L 486,154 L 485,154 L 485,153 L 484,153 L 484,154 L 483,153 L 483,152 L 482,151 L 481,151 L 480,151 L 480,150 L 479,149 L 479,148 L 478,148 L 478,147 L 477,147 L 477,146 L 476,146 L 475,145 L 473,143 L 473,142 L 472,141 L 472,140 L 471,140 L 470,139 L 469,138 L 469,137 L 468,137 L 468,136 L 467,136 L 467,135 L 467,134 L 466,133 L 467,132 L 468,132 L 468,131 L 468,130 L 467,130 L 466,130 L 466,129 L 466,128 L 465,127 L 464,127 L 464,126 L 463,126 L 462,126 L 462,125 L 461,125 L 461,124 L 460,124 L 460,123 L 459,123 L 458,122 L 457,122 L 457,123 L 456,123 L 456,124 L 456,125 L 455,125 L 455,126 L 454,126 L 453,127 L 452,128 L 452,129 L 452,130 L 452,131 L 451,131 L 451,132 L 451,133 L 451,134 L 451,135 L 450,135 L 450,136 L 449,136 L 449,137 L 449,138 L 448,138 L 448,139 L 447,139 L 447,140 L 446,140 L 445,141 L 444,142 L 443,142 L 443,143 L 442,143 L 441,143 L 441,142 L 440,142 L 439,142 L 438,142 L 438,141 L 438,140 L 438,139 L 437,139 L 437,138 L 436,138 L 435,138 L 435,137 L 434,137 L 433,136 L 433,137 L 432,137 L 432,136 L 431,136 L 430,135 L 430,136 L 429,136 L 429,137 L 429,138 L 428,138 L 428,137 L 428,136 L 428,135 L 426,136 L 424,136 L 423,136 L 422,136 L 421,136 L 420,136 L 419,136 L 418,136 L 418,137 L 417,137 L 416,137 L 415,136 L 415,137 L 414,137 L 413,137 L 412,137 L 411,136 L 409,137 L 409,136 L 408,137 L 407,137 L 406,137 L 405,137 L 405,136 L 405,135 L 406,135 L 405,134 L 405,133 L 405,132 L 405,131 L 405,130 L 404,130 L 404,129 L 403,129 L 403,128 L 403,127 L 403,126 L 404,126 L 404,125 L 403,125 L 402,125 L 401,125 L 401,124 L 400,121 L 400,122 L 399,122 L 399,121 L 399,120 L 398,120 L 397,120 L 397,119 L 396,119 L 395,119 L 394,120 L 393,120 L 393,121 L 392,121 L 391,122 L 391,121 L 391,120 L 392,120 L 392,119 L 392,118 L 391,118 L 391,117 L 390,117 L 389,117 L 389,116 L 388,115 L 388,114 L 387,114 L 386,114 L 386,115 L 385,115 L 384,115 L 383,115 L 382,115 L 382,114 L 381,114 L 381,113 L 382,113 L 382,112 L 383,111 L 384,111 L 384,110 L 384,109 L 385,108 L 384,108 L 384,107 L 384,106 L 384,105 L 384,104 L 384,103 L 384,102 L 383,101 L 383,100 L 383,99 L 383,98 L 383,97 L 383,96 L 382,96 L 382,95 L 383,95 L 384,94 L 385,93 L 385,92 L 385,91 L 385,90 L 384,90 L 384,89 L 383,89 L 383,88 L 384,87 L 385,86 L 386,85 L 386,84 L 386,83 L 387,82 L 388,81 L 388,80 L 389,79 L 389,78 L 390,77 L 390,76 L 389,75 L 388,75 L 387,74 L 387,73 L 387,72 L 387,71 L 387,70 L 388,69 L 388,68 L 388,67 L 388,66 L 389,65 " />
</g>
<g id="dep74" inkscape:label="HAUTE_SAVOIE">
<path d="M 566,39 L 567,39 L 567,38 L 567,37 L 568,37 L 568,36 L 568,35 L 569,35 L 570,35 L 570,34 L 571,34 L 571,33 L 572,33 L 573,33 L 574,33 L 575,33 L 576,33 L 576,34 L 576,35 L 577,35 L 577,36 L 577,37 L 578,37 L 577,37 L 578,37 L 579,37 L 579,38 L 580,38 L 581,38 L 581,37 L 582,37 L 582,36 L 583,36 L 582,36 L 583,36 L 583,35 L 583,34 L 584,34 L 585,34 L 586,34 L 587,34 L 587,33 L 588,33 L 587,33 L 588,33 L 589,33 L 589,32 L 590,32 L 591,31 L 592,31 L 591,31 L 592,31 L 592,30 L 592,29 L 592,28 L 593,27 L 594,27 L 594,26 L 595,26 L 596,26 L 597,26 L 597,27 L 597,26 L 597,27 L 598,27 L 599,27 L 599,28 L 599,27 L 599,28 L 600,28 L 600,27 L 601,27 L 602,27 L 603,27 L 603,26 L 604,26 L 605,26 L 606,26 L 607,26 L 608,26 L 608,25 L 609,25 L 610,25 L 611,25 L 610,25 L 611,25 L 612,25 L 611,25 L 612,25 L 613,25 L 614,25 L 615,25 L 616,25 L 616,24 L 616,25 L 616,24 L 617,24 L 618,24 L 619,24 L 620,24 L 621,24 L 621,25 L 622,25 L 623,25 L 624,25 L 625,25 L 626,25 L 626,26 L 627,26 L 628,26 L 629,26 L 629,27 L 629,26 L 629,27 L 629,26 L 630,26 L 631,26 L 630,26 L 630,27 L 630,28 L 631,28 L 631,29 L 630,29 L 630,30 L 630,31 L 629,31 L 628,31 L 627,31 L 627,32 L 627,33 L 627,34 L 627,35 L 628,35 L 628,36 L 629,36 L 629,37 L 630,37 L 630,38 L 630,39 L 631,39 L 632,39 L 633,40 L 634,40 L 634,41 L 634,42 L 634,43 L 635,43 L 635,42 L 635,43 L 636,43 L 636,44 L 637,44 L 638,44 L 638,45 L 639,45 L 639,46 L 638,46 L 638,47 L 638,48 L 638,49 L 638,50 L 637,51 L 636,51 L 636,52 L 636,53 L 635,53 L 635,54 L 634,54 L 634,55 L 634,56 L 633,56 L 633,57 L 633,58 L 632,58 L 632,59 L 632,60 L 632,61 L 633,61 L 633,62 L 633,63 L 633,64 L 632,65 L 632,66 L 631,66 L 631,67 L 631,68 L 631,69 L 631,70 L 632,70 L 632,71 L 633,71 L 633,72 L 634,72 L 635,72 L 636,72 L 637,72 L 638,72 L 638,73 L 638,72 L 638,73 L 639,73 L 640,73 L 641,73 L 642,73 L 643,73 L 644,73 L 644,74 L 644,75 L 644,76 L 643,76 L 643,77 L 643,78 L 642,78 L 643,78 L 643,79 L 644,80 L 643,80 L 643,81 L 644,81 L 644,82 L 643,82 L 642,82 L 642,83 L 642,84 L 642,85 L 642,86 L 642,87 L 643,87 L 644,87 L 644,86 L 645,86 L 646,86 L 646,85 L 647,85 L 647,84 L 648,83 L 649,83 L 649,84 L 649,85 L 650,85 L 651,85 L 651,86 L 652,87 L 653,89 L 654,89 L 654,90 L 655,90 L 655,91 L 655,92 L 656,92 L 656,93 L 657,93 L 657,94 L 658,94 L 659,94 L 659,95 L 659,96 L 660,96 L 660,97 L 661,97 L 661,98 L 660,98 L 659,98 L 659,99 L 659,100 L 660,100 L 660,101 L 661,101 L 662,101 L 663,101 L 663,102 L 662,102 L 663,102 L 663,103 L 663,104 L 662,104 L 663,104 L 663,105 L 663,106 L 664,106 L 664,107 L 663,107 L 662,107 L 662,108 L 661,108 L 661,109 L 660,109 L 660,110 L 659,110 L 659,111 L 659,112 L 659,113 L 659,114 L 659,115 L 658,115 L 659,115 L 659,116 L 658,116 L 658,117 L 657,117 L 656,117 L 655,117 L 655,118 L 654,118 L 653,118 L 653,119 L 652,119 L 652,120 L 652,121 L 651,121 L 650,121 L 649,121 L 649,122 L 648,122 L 647,122 L 646,122 L 645,122 L 645,121 L 644,121 L 644,122 L 643,123 L 643,124 L 644,124 L 643,124 L 643,125 L 643,124 L 642,124 L 642,125 L 642,124 L 642,123 L 641,123 L 640,123 L 640,122 L 640,123 L 639,123 L 638,123 L 637,123 L 637,124 L 637,125 L 636,125 L 636,126 L 636,127 L 635,127 L 636,127 L 636,128 L 636,129 L 637,129 L 636,129 L 636,130 L 637,130 L 637,131 L 636,131 L 636,132 L 635,132 L 636,132 L 635,132 L 636,132 L 635,132 L 635,133 L 635,134 L 635,133 L 635,134 L 634,134 L 634,135 L 633,135 L 632,135 L 631,135 L 631,136 L 630,136 L 630,137 L 629,137 L 629,138 L 628,138 L 628,139 L 628,140 L 627,140 L 627,141 L 626,142 L 626,143 L 625,143 L 625,144 L 624,144 L 624,143 L 623,143 L 622,143 L 622,142 L 623,142 L 623,141 L 623,140 L 623,139 L 622,139 L 621,138 L 622,138 L 622,137 L 622,136 L 621,135 L 621,134 L 620,134 L 620,133 L 619,133 L 619,132 L 618,132 L 618,131 L 617,131 L 616,131 L 615,131 L 614,131 L 614,132 L 613,132 L 612,132 L 611,132 L 610,132 L 609,131 L 608,131 L 608,130 L 609,130 L 608,129 L 608,128 L 607,128 L 606,128 L 605,128 L 605,127 L 604,127 L 604,126 L 605,126 L 604,126 L 604,125 L 604,124 L 604,123 L 603,123 L 603,122 L 603,121 L 602,121 L 603,120 L 604,120 L 604,121 L 605,121 L 605,120 L 606,120 L 606,119 L 606,118 L 607,118 L 606,117 L 605,116 L 605,115 L 604,115 L 603,115 L 602,115 L 601,115 L 601,114 L 600,114 L 599,113 L 599,112 L 599,113 L 598,113 L 598,114 L 598,115 L 597,115 L 597,116 L 596,116 L 595,117 L 594,117 L 594,118 L 594,119 L 593,120 L 593,121 L 592,121 L 592,122 L 592,123 L 591,123 L 591,124 L 592,124 L 592,125 L 592,126 L 591,126 L 591,127 L 590,128 L 590,129 L 590,130 L 589,130 L 589,131 L 589,132 L 588,132 L 588,133 L 587,133 L 586,134 L 585,135 L 585,136 L 584,136 L 583,137 L 582,137 L 582,138 L 583,138 L 583,139 L 583,140 L 580,143 L 581,144 L 581,145 L 580,146 L 580,147 L 580,148 L 579,148 L 579,149 L 579,150 L 578,150 L 578,151 L 577,151 L 576,151 L 575,151 L 575,152 L 574,152 L 573,152 L 573,153 L 572,153 L 571,153 L 571,152 L 571,153 L 570,153 L 570,152 L 570,153 L 569,153 L 568,153 L 567,153 L 567,154 L 566,154 L 566,153 L 566,152 L 566,151 L 566,150 L 565,149 L 564,149 L 564,150 L 563,151 L 563,150 L 563,151 L 562,151 L 562,152 L 561,151 L 561,150 L 561,149 L 561,148 L 561,147 L 561,146 L 562,146 L 562,145 L 560,145 L 559,144 L 559,143 L 560,143 L 559,143 L 559,142 L 558,142 L 558,141 L 557,141 L 556,140 L 555,140 L 554,140 L 554,141 L 554,142 L 553,142 L 552,142 L 552,141 L 552,142 L 552,141 L 552,142 L 552,141 L 551,141 L 550,141 L 550,140 L 550,141 L 550,142 L 550,143 L 550,144 L 550,145 L 549,145 L 550,144 L 549,144 L 549,143 L 548,143 L 548,144 L 547,144 L 546,144 L 546,143 L 545,143 L 544,142 L 544,143 L 544,144 L 543,144 L 543,145 L 543,144 L 542,144 L 541,144 L 540,144 L 540,143 L 539,143 L 538,143 L 537,143 L 537,142 L 537,141 L 536,140 L 535,140 L 534,140 L 534,139 L 534,138 L 535,138 L 535,137 L 535,136 L 535,135 L 534,135 L 533,135 L 532,135 L 532,134 L 533,133 L 533,132 L 532,132 L 531,133 L 531,132 L 531,133 L 531,132 L 530,133 L 530,132 L 529,132 L 529,133 L 528,133 L 528,134 L 527,134 L 527,133 L 526,133 L 526,132 L 525,132 L 525,131 L 525,130 L 526,130 L 525,130 L 524,130 L 523,130 L 522,130 L 523,129 L 522,129 L 522,128 L 522,129 L 522,128 L 522,127 L 522,126 L 522,125 L 522,124 L 522,123 L 522,122 L 521,121 L 521,120 L 521,119 L 520,117 L 520,116 L 520,115 L 520,114 L 520,112 L 519,112 L 518,112 L 518,111 L 517,111 L 517,112 L 516,112 L 516,111 L 515,111 L 515,110 L 516,110 L 516,109 L 516,108 L 516,107 L 516,106 L 516,105 L 516,104 L 515,104 L 515,103 L 514,103 L 513,102 L 513,101 L 513,100 L 513,99 L 513,98 L 512,98 L 512,97 L 513,97 L 513,96 L 513,95 L 513,94 L 512,93 L 512,92 L 513,92 L 513,91 L 513,90 L 512,90 L 512,89 L 512,88 L 512,87 L 513,87 L 513,86 L 513,85 L 514,84 L 514,83 L 514,82 L 513,82 L 514,82 L 514,81 L 515,81 L 515,82 L 516,82 L 516,83 L 517,84 L 518,84 L 518,85 L 519,85 L 520,85 L 521,85 L 522,85 L 522,84 L 522,83 L 522,82 L 522,81 L 521,81 L 522,80 L 522,79 L 523,79 L 524,79 L 524,78 L 525,78 L 525,77 L 526,77 L 527,77 L 528,77 L 529,77 L 530,76 L 530,77 L 531,77 L 531,76 L 532,76 L 533,76 L 533,75 L 533,74 L 534,74 L 535,74 L 536,74 L 537,74 L 538,74 L 538,75 L 539,75 L 539,76 L 539,75 L 540,75 L 540,74 L 541,75 L 541,74 L 541,73 L 542,73 L 544,73 L 546,72 L 546,73 L 547,73 L 547,74 L 548,74 L 549,74 L 550,74 L 551,74 L 552,74 L 552,73 L 553,73 L 553,72 L 554,72 L 555,71 L 556,71 L 556,70 L 557,70 L 558,69 L 557,68 L 557,67 L 558,67 L 557,67 L 558,67 L 558,66 L 559,66 L 559,65 L 560,65 L 560,64 L 561,64 L 561,63 L 562,63 L 561,63 L 562,63 L 563,63 L 562,62 L 563,62 L 564,62 L 565,62 L 565,61 L 566,61 L 567,61 L 567,60 L 568,60 L 569,60 L 569,59 L 570,59 L 570,58 L 571,58 L 571,57 L 571,56 L 572,55 L 572,54 L 571,54 L 572,53 L 571,53 L 570,53 L 570,52 L 569,52 L 569,53 L 568,54 L 567,54 L 567,55 L 567,54 L 566,54 L 566,53 L 564,52 L 564,50 L 563,50 L 563,49 L 563,48 L 564,48 L 565,48 L 565,47 L 564,47 L 564,46 L 564,45 L 563,45 L 564,45 L 564,44 L 565,44 L 565,43 L 565,42 L 565,41 L 565,42 L 565,41 L 566,41 L 565,40 L 566,40 L 566,39 " />
</g>
</g>
</g>
<!-- QGIS extent for clipping, eg in Inkscape -->
<g id="qgisviewbox" inkscape:groupmode="layer" inkscape:label="qgisviewbox" stroke="rgb(255,0,0)" stroke-width="1" fill="none" >
<path d="M 0,519 L 1064,519 L 1064,0 L 0,0 L 0,519 " />
</g></svg>